<?xml version='1.0' encoding='utf-8'?>
<svg xmlns:xlink="http://www.w3.org/1999/xlink" xmlns="http://www.w3.org/2000/svg" viewBox="0 0 64 64"> <defs> <linearGradient id="a"> <stop stop-color="#f9cc84" offset="0"/> <stop stop-color="#fed27f" offset="1"/> </linearGradient> <linearGradient id="c" x1="32" x2="27.857" y1="16.238" y2="47.922" gradientUnits="userSpaceOnUse"> <stop stop-color="#f3ac39" stop-opacity=".62876" offset="0"/> <stop stop-color="#fcba94" stop-opacity=".78261" offset="1"/> </linearGradient> <linearGradient id="e" x1="36.32" x2="30.31" y1="48" y2="16.276" gradientUnits="userSpaceOnUse" xlink:href="#a"/> <linearGradient id="d" x1="31.973" x2="27.83" y1="16.238" y2="47.922" gradientUnits="userSpaceOnUse" xlink:href="#a"/> <radialGradient id="b" cx="-18.3" cy=".4053" r="17.1" gradientTransform="matrix(-.1316 1.117 -1.0576 -.12462 33.357 39.585)" gradientUnits="userSpaceOnUse"> <stop stop-color="#f0d81f" offset="0"/> <stop stop-color="#f08b0a" offset="1"/> </radialGradient> </defs> <path d="m22,14c-1,0-1,1-1,1v17c-1,.0488-5,0-5,0-.44725.00913-.84641.10907-1.01605.523s-.0774.88906.2348,1.20945l16,16c.43543.4218 1.12707.4218 1.5625,0l16-16c.3122-.32038.40444-.79552.2348-1.20945s-.5688-.51387-1.01605-.523h-5v-17.0488c0,0 0-1-1-1-6,0-14,.0488-20,.0488z" fill="#a54005"/> <path d="m41.781 15.156c-5.903 0.00132-13.643 0.06118-19.562 0.0625v16.781c0.00101 0.64949-0.50761 1.1856-1.1562 1.2188-1.094 0.05339-4.0576 0.00784-4.625 0l15.562 15.562 15.531-15.562h-4.5312c-0.67317 1.7e-4 -1.2189-0.54558-1.2188-1.2188v-16.844z" fill="url(#b)"/> <path d="m41 17c-0.90625-1.0312-17-1-18 0s0.12155 14.11 0.09375 15c-0.09375 3-4.0938 1-3.0938 3 2 3 11 12 12 12s10-9 12-12c1-2-3 0-3.0938-3-0.02923-0.93544 1.1875-14.031 0.09375-15z" fill="url(#c)"/> <path d="m19.973 35c2 3 11 12 12 12s7.0265-5.4591 9.0265-8.5022c-0.97347 0-4 3.5022-9 3.5022-4 0-9-9-12.027-7z" fill="url(#d)"/> <path d="m32.035 16.276c-4.2617 0.00391-8.5312 0.25-9.0312 0.75-0.69815 0.69815-0.3999 6.176-0.15625 10.188 0.15267 2.7863 0.15267 2.7863 1.1527-0.21374 3.4928-10.479 16.082-8.3158 17.41-7.9425-0.06258-1.0077-0.17517-1.8266-0.40625-2.0312-0.45313-0.51563-4.707-0.75391-8.9688-0.75z" fill="url(#e)"/> </svg>