<?xml version='1.0' encoding='utf-8'?>
<svg xmlns="http://www.w3.org/2000/svg" version="1.1" viewBox="0 0 512 512"> <defs> <style>.st0 { fill: #010101; } .st1 { fill: url(#o); } .st2 { fill: url(#h); } .st3 { fill: url(#f); } .st4 { fill: url(#g); } .st5 { fill: url(#b); } .st6 { fill: url(#d); } .st7 { fill: url(#c); } .st8 { fill: url(#e); } .st9 { fill: url(#a); } .st10 { fill: #dee8ec; } .st11 { fill: #fc9e27; } .st12 { fill: #ed4a17; } .st13 { fill: #cc1c48; } .st14 { fill: #e87d07; } .st15 { fill: #4b6b78; } .st16 { fill: #092400; } .st17 { fill: #404122; } .st18 { fill: #7da427; } .st19 { fill: #65911e; } .st20 { fill: #d9ea53; } .st21 { fill: #fed235; } .st22 { fill: #558212; } .st23 { fill: #f72d33; } .st24 { fill: #820324; } .st25 { fill: #487115; } .st26 { fill: #1d2133; } .st27 { fill: #aad62e; } .st28 { fill: #597986; } .st29 { fill: #010; } .st30 { fill: #a9c0ce; } .st31 { fill: #fb6b29; } .st32 { fill: #fefefe; } .st33 { fill: #6c8c98; } .st34 { fill: url(#j); } .st35 { fill: url(#i); } .st36 { fill: url(#l); } .st37 { fill: url(#k); } .st38 { fill: url(#n); } .st39 { fill: url(#m); } .st40 { fill: #fce976; } .st41 { fill: #defc75; } .st42 { fill: #a70225; } .st43 { fill: #355a05; } .st44 { fill: #0d0c1b; } .st45 { fill: #42505c; } .st46 { fill: #89be2b; } .st47 { fill: #7fa8b0; } .st48 { fill: #d42a10; } .st49 { fill: #363544; }</style> <linearGradient id="o" x1="1752.7" x2="1762.8" y1="-809.9" y2="-808.3" data-name="Unbenannter Verlauf" gradientTransform="translate(-123 97.6) scale(.2 -.2)" gradientUnits="userSpaceOnUse"> <stop stop-color="#6498a7" offset="0"/> <stop stop-color="#5f839a" offset="1"/> </linearGradient> <linearGradient id="h" x1="1495.2" x2="1499" y1="-887.7" y2="-920.3" data-name="Unbenannter Verlauf 2" gradientTransform="translate(-123 97.6) scale(.2 -.2)" gradientUnits="userSpaceOnUse"> <stop stop-color="#486776" offset="0"/> <stop stop-color="#698a94" offset="1"/> </linearGradient> <linearGradient id="g" x1="1476.6" x2="1465.4" y1="-797.9" y2="-801.3" data-name="Unbenannter Verlauf 3" gradientTransform="translate(-123 97.6) scale(.2 -.2)" gradientUnits="userSpaceOnUse"> <stop stop-color="#d0ebec" offset="0"/> <stop stop-color="#e2e8ee" offset="1"/> </linearGradient> <linearGradient id="f" x1="1495.9" x2="1514.7" y1="-956.3" y2="-954.7" data-name="Unbenannter Verlauf 4" gradientTransform="translate(-123 97.6) scale(.2 -.2)" gradientUnits="userSpaceOnUse"> <stop stop-color="#b4ccd6" offset="0"/> <stop stop-color="#99adbc" offset="1"/> </linearGradient> <linearGradient id="e" x1="1469.8" x2="1430.3" y1="-627.9" y2="-652.8" data-name="Unbenannter Verlauf 5" gradientTransform="translate(-123 97.6) scale(.2 -.2)" gradientUnits="userSpaceOnUse"> <stop stop-color="#608898" offset="0"/> <stop stop-color="#8cb6b5" offset="1"/> </linearGradient> <linearGradient id="d" x1="1881" x2="1854.7" y1="-934.1" y2="-910.1" data-name="Unbenannter Verlauf 6" gradientTransform="translate(-123 97.6) scale(.2 -.2)" gradientUnits="userSpaceOnUse"> <stop stop-color="#e93e21" offset="0"/> <stop stop-color="#be2001" offset="1"/> </linearGradient> <linearGradient id="c" x1="1887.3" x2="1735.9" y1="-1429.2" y2="-1352.9" data-name="Unbenannter Verlauf 7" gradientTransform="translate(-123 97.6) scale(.2 -.2)" gradientUnits="userSpaceOnUse"> <stop stop-color="#343145" offset="0"/> <stop stop-color="#4b4c5a" offset="1"/> </linearGradient> <linearGradient id="b" x1="1824" x2="1835.9" y1="20.9" y2="-40.5" data-name="Unbenannter Verlauf 8" gradientTransform="translate(-123 97.6) scale(.2 -.2)" gradientUnits="userSpaceOnUse"> <stop stop-color="#497808" offset="0"/> <stop stop-color="#2f4510" offset="1"/> </linearGradient> <linearGradient id="a" x1="1725.8" x2="1722.5" y1="-196" y2="-133.5" data-name="Unbenannter Verlauf 9" gradientTransform="translate(-123 97.6) scale(.2 -.2)" gradientUnits="userSpaceOnUse"> <stop stop-color="#ff7740" offset="0"/> <stop stop-color="#f35152" offset="1"/> </linearGradient> <linearGradient id="n" x1="1628.7" x2="1574.9" y1="-358.5" y2="-384.2" data-name="Unbenannter Verlauf 10" gradientTransform="translate(-123 97.6) scale(.2 -.2)" gradientUnits="userSpaceOnUse"> <stop stop-color="#f8971d" offset="0"/> <stop stop-color="#febc3b" offset="1"/> </linearGradient> <linearGradient id="m" x1="1659" x2="1704.5" y1="-685.6" y2="-632.4" data-name="Unbenannter Verlauf 11" gradientTransform="translate(-123 97.6) scale(.2 -.2)" gradientUnits="userSpaceOnUse"> <stop stop-color="#f95723" offset="0"/> <stop stop-color="#f98538" offset="1"/> </linearGradient> <linearGradient id="l" x1="1458.7" x2="1459.5" y1="-726.1" y2="-710.9" data-name="Unbenannter Verlauf 12" gradientTransform="translate(-123 97.6) scale(.2 -.2)" gradientUnits="userSpaceOnUse"> <stop stop-color="#688192" offset="0"/> <stop stop-color="#7897a4" offset="1"/> </linearGradient> <linearGradient id="k" x1="1370.9" x2="1348.1" y1="-627.1" y2="-549.3" data-name="Unbenannter Verlauf 13" gradientTransform="translate(-123 97.6) scale(.2 -.2)" gradientUnits="userSpaceOnUse"> <stop stop-color="#ff8b17" offset="0"/> <stop stop-color="#fdc939" offset="1"/> </linearGradient> <linearGradient id="j" x1="2121.4" x2="2177.9" y1="5.2" y2="-65.9" data-name="Unbenannter Verlauf 14" gradientTransform="translate(-123 97.6) scale(.2 -.2)" gradientUnits="userSpaceOnUse"> <stop stop-color="#5c8d0d" offset="0"/> <stop stop-color="#244600" offset="1"/> </linearGradient> <linearGradient id="i" x1="2120.5" x2="1940.7" y1="-400.6" y2="-306.2" data-name="Unbenannter Verlauf 15" gradientTransform="translate(-123 97.6) scale(.2 -.2)" gradientUnits="userSpaceOnUse"> <stop stop-color="#2f5303" offset="0"/> <stop stop-color="#406c04" offset="1"/> </linearGradient> </defs> <path class="st0" d="M172.9,20.1c1.8,0,3.6.2,5.2,1,1.8.9,3.1,2.4,3.6,4.4,3.2,11.4-12.1,14.5-16.9,23.3-5.1,9.3-5.8,25.2-3.5,35.4,1.1,4.8,3.1,9.1,4.5,13.8v.3c3.9,0,7.5.2,11.1,1.3,3,.9,5.8,2.2,8.5,3.8,8.6,5,11.6,11.7,15.6,20.4,3.2,7,6.2,14.2,9.8,21-.2-7,1.1-14.7,3.2-21.4,2-6.2,5.1-11.5,11.1-14.6,5.3-2.7,9.6-2.2,15-.4,1.6-5.1,1.3-12.7,3.6-16.8,1.5-2.6,4.3-4.5,7.3-5.2,2.3-.6,5.9.2,7.8,1.4,6,3.8,4.8,12.3,6.2,18.3v.4c.7.7,1.5,1.6,2.4,1.9,1.2.4,2.5.1,3.7,0,3.9-.3,7.3.5,10.5,2.7,5.2,3.5,8.1,9.2,9.3,15.2,3.8.2,7.5.9,11.2,1.7,1.2-10.8-.1-20.7-2.1-31.3-1.9.3-3.9.3-5.9.1-5.6-.6-10.6-3.4-14.1-7.8-5.6-7-6.3-16.6-3.7-25,1.1-3.5,2.9-6.9,3.7-10.5.7-3.3,0-6.6.4-9.9.2-1.1.6-2.4,1.6-3.1.9-.6,2.1-.6,3-.4,1.5.4,2.9,1.3,4.1,2.2,2.8,2.1,5,5,7.7,7.2,3.2,2.6,7,4.3,9.9,7.2,1.8,1.7,3.2,3.9,4.4,6.1,3.3,6.2,4.6,13.9,2.5,20.7-1.6,5.1-4.6,8.6-9.3,11.1,1.3,3.9,2,7.8,2.7,11.8.5-.8,1-1.7,1.6-2.5,8.6-13.2,25.9-20.7,40.9-23.9,0,0,0-.1,0-.2,6.7-15.6,21.6-36.4,33.6-48.3,2.6-2.6,5.8-5.8,9.3-7.2,1.6-.6,3.2-.7,4.8,0,2,1,3.2,3,3.8,5,1,3.2.8,6.9.7,10.3-.5,14-3.8,27.8-7.9,41.1-1.7,5.3-3.4,10.7-5.9,15.7,2.6-1.8,5.1-3.9,7.7-5.7,11.3-7.7,24.2-14.8,37.6-17.8,2.7-.6,6.3-1.3,8.8.4,1.3.9,2,2.3,2.2,3.8.5,2.9-.6,6.1-1.5,8.8-4.2,13.4-12,25.3-20.4,36.4.3.3.6.6.9,1,1.3,1.7,2.2,4.2,1.9,6.4-.3,2.6-2.3,4.1-4.2,5.6,2-.8,4.1-1.8,6.3-1.9,1.8-.1,3.3.4,4.6,1.6,1.8,1.7,2.8,4.4,2.7,6.9,0,2-.8,3.9-2.3,5.3-3.3,3.2-8.8,2.8-13,2.7,1.7,3,2.8,6.4,2.9,9.9.2,5.5-1.9,10.2-5.7,14.1.8,1.9,1.1,4.2,1.2,6.3.2,6.3-2.4,10.5-6.6,14.9.2.9.4,1.7.6,2.6,1.4,7.6-1.6,15.3-7.8,19.9-1.2.9-3.4,1.4-4.2,2.5,1.2,3.9-.3,3.8-1.4,7,.4.5,4.5,1.3,6.6,3,2.3,1.9,4.3,4.6,4.5,7.7.1,2.1-.9,4.9-1.6,6.9-2.9,9.1-6.3,18.2-9.6,27.2l-11.9,33.6-11.5,33.1c-1.8,5.2-3.5,10.6-5.6,15.8-.4,1.1-.9,2-1.7,2.8-1.2,1.3-2.5,1.8-4.2,2.2-5.9,1.3-14.9,1.4-21.1,1.9l-39.3,2.8c-16.8,1.5-33.6,2.5-50.4,3.7-3.3,6.7-6.4,13.5-9.7,20.2,2.2,2.3,4.6,5,7.3,6.7,13.8.7,27.7.6,41.5.8l38.7.8,20.2.3c3.4,0,6.9,0,10.3.3,2.2.3,4.4.9,6.1,2.3,2.5,2,3.9,5.2,4.1,8.4.3,3.4-1.1,6.9-3.3,9.5-4.8,5.5-12.6,5.9-19.5,6.4,1.1.9,2.1,1.9,3,2.9,4.7,5.3,7.1,12.2,6.6,19.2-.4,7.2-3.6,13.9-9,18.6-5.4,4.8-12.5,7.2-19.7,6.7-7.3-.5-14.2-3.9-19-9.5-4.6-5.2-6.6-12.2-6.1-19.1.5-7.8,4-13.8,9.8-18.8-6.3.3-12.6.1-18.8.1h-36.6c0,.1-32.7.6-32.7.6-5.3,0-10.7.3-16.1.1.7.7,1.4,1.4,2,2.1,4.9,5.6,7,13.2,6.3,20.6-.6,7-4.4,13.9-9.9,18.3-5.6,4.5-12.8,6.3-19.9,5.6-7.2-.8-14.1-4.2-18.6-9.9-4.5-5.7-6.4-12.9-5.6-20.1.7-5.8,3.5-12.3,8.1-16-6.9-.5-14-1.1-19.2-6.2-3.9-3.8-5.3-8.9-5.4-14.3,0-4.1.7-7.9,2.5-11.6,2.7-5.3,9.4-11.8,13.5-16.2,3.2-3.5,6.4-7,9.7-10.4-3.5-12-7.7-23.8-11.5-35.7-7.3-22.9-14.7-45.8-22.3-68.6l-9.2-28.1c-2.5-7.6-4.5-16.1-8.5-23-3.5-6-9.9-10.3-15.8-13.8-1.3,2.3-2.6,4.2-5.3,5.1-2.4.8-5.3.5-7.6-.8-2.4-1.3-3.4-3.1-4.1-5.6-7.7,2.7-16.3,5.3-24.3,2.7-5.2-1.7-9.5-5.5-12-10.4-2.3-4.7-2.7-10.1-1-15,1.7-5.1,5.5-9.2,10.3-11.5,10.1-4.7,20.2.8,29.7,4.3.4-.5.8-1.1,1.2-1.5,1.8-1.9,4.2-3.5,7-3.5,3.1,0,5.1,1.8,7.1,3.9,3.6.1,28.2,0,30.1-1,.8-.4,2-1.9,2.7-2.5,2.2-1.9,6.5-2.5,9.2-3-1.8-3.1-3.3-6.5-4.9-9.7-2.3-4.6-4.7-9.3-6.4-14.1-2.5-7-2.5-14.1.7-20.9,2.7-5.7,7.4-10.4,13.4-12.6-1.1-4.8-1.9-9.7-2.8-14.6-3.5-19.2-3.2-39.2,8.4-55.8,3.6-5.1,8.6-9.4,14.8-10.5Z"/> <path class="st17" d="M328.3,265.6c-1.2-1.1-3-.4-4.1-2l.2-.5c1.7.1,3.1,1.5,4.8,1.6.1,0,.2,0,.3,0-.5.3-.9.4-1.2.9Z"/> <path class="st46" d="M417.2,140.1c1.4-.4,2.8-.7,4.2-1l.2,1.5-3.1.6c-.7-.2-.9-.5-1.3-1Z"/> <path class="st18" d="M412.5,141.3c1.6-.5,3.2-.8,4.8-1.2.4.5.6.8,1.3,1-1.4.3-4.7,1.4-5.8.7l-.3-.6Z"/> <path class="st18" d="M286.7,45.2c1.1.4,2.2,1.4,3,2.2.8.8,1,1.1.9,2.2-.4.2-.7.2-1.1.2-1.2-1-2.3-3.3-2.9-4.7Z"/> <path class="st25" d="M198.6,285.3c1.1,0,2.9.2,3.9.7.9.5,1,1,1.3,1.9-.6.2-.9.1-1.5,0-1.5-.5-3-1.1-3.7-2.5Z"/> <path class="st24" d="M257.3,322.6c.6.4.9.9,1.2,1.5.7,1.5.6,2.9,0,4.4h-.4c0,.1-.4-.1-.4-.1-.6-1.9-.6-3.8-.5-5.7Z"/> <path class="st10" d="M223.6,335.8h.1c.3.9.6,2,1,2.9,0,.9.3,2-.2,2.7-.4.2-.6.3-1,.3-.3-1.3-.7-2.5-1.1-3.8.7-.5,1-1.3,1.1-2.1Z"/> <path class="st44" d="M249.8,306.6c.8,1.2.6,2.1.5,3.5,1.1,0,2.3,0,3.4.3-2.6,0-5.2,0-7.8-.1.4-.6.3-1.1.2-1.8.8.6,1.4.6,2.4.6.5,0,.7,0,1.2-.1.4-.8.2-1.4.2-2.4Z"/> <path class="st22" d="M307.7,257.6c1.1.3,3.2.7,3.9,1.7.3.5.4.7.2,1.2-1.2.3-3.8-1.3-5.1-1.7l-.4-.4v-.3c.1,0,1.4-.5,1.4-.5Z"/> <path class="st25" d="M293.5,246.7c-.7.1-1,.3-1.6,0-.2-.3-.2-.3-.3-.8-.3-1,0-2.7.5-3.6h1.6c0,1.4-.2,2.7,0,4.1v.2Z"/> <path class="st11" d="M206.9,147.5c.9,1.9,2.5,4.2,2.5,6.4l-.3.2c-1.7-.9-3.1-4-4.1-5.7l.2-.3c1.1,1,1.3,2.5,2.3,3.4l.5-.2c.1-.6-1.2-2.8-1.5-3.6l.3-.4Z"/> <path class="st45" d="M392.6,248.8c3,0,6-.2,9-.5,0,.5,0,.7-.3,1.2h-.2c-.8,0-1.5,1.1-2.3,1.6-1.1-.5-1.2-1.7-2.4-2.2-1.3,0-2.5,0-3.9-.1Z"/> <path class="st12" d="M85.3,168.1c2.2.8,4.4,1.6,6.7,2.3-.2.4-.4.8-.9,1-1.3.5-3.9-.9-5.2-1.4l1-.4v-.3c-.6-.2-.9-.3-1.3-.8-.1-.1-.2-.3-.3-.4Z"/> <path class="st47" d="M224.7,338.7l.5,1.5v.3c.2,2.7,1.3,4.7,0,7.3-.4-2-1.1-4-1.7-6,.4,0,.6-.1,1-.3.5-.8.3-1.8.2-2.7Z"/> <path class="st18" d="M439,76.8c.7.4,1,.5,1.2,1.2.4,1.8-.5,4.3-1,6l-.4-.5.4-.6v-.2c0,0-.4-.1-.4-.1-.1,0-.2,0-.4.1-.1,0-.2,0-.4,0,.5-1.3.3-2.4.2-3.7.6-.7.7-1.3.8-2.2Z"/> <path class="st11" d="M162.5,103.5c4.3-.8,8.2-.7,12.5.4l-.4.2c-2.8-.3-5.7.4-8.6-.3-.7-.2-1.2-.2-2-.2l-1.5-.2Z"/> <path class="st24" d="M249.9,288.2c.6.2.9.5,1.3,1,1.4,1.9,1.2,4.8,1,7-.9-2-2.8-5.7-2.3-8Z"/> <path class="st30" d="M118.3,199.6c.8-.2,1-.3,1.7,0,.7.3,1.3.9,1.9,1.3.8,1.5,2.4,2.5,3.5,3.8l-1.1.6c-1.4-.9-4.4-4.4-5.9-5.7Z"/> <path class="st10" d="m249.7 346.2c0.6 0.9 0.7 2.4 0.9 3.5h-4.9c-0.4 0-0.3 0-0.5-0.3 1.1-1.3 3.1-2.2 4.5-3.2z"/> <path class="st45" d="M224.3,331.9c1.1,3.9,2,7.7,2.6,11.7-.6-1.1-.9-2.3-1.7-3.3l-.5-1.5c-.4-.9-.7-1.9-1-2.9,0-1.3.6-2.5.6-3.9Z"/> <path class="st45" d="M336.4,320.9l3.5.3-1,3.5c-.3-.1-.2,0-.5-.1-1,0-2-.2-3-.4.3-1.1.6-2.2,1-3.3Z"/> <path class="st15" d="M345.1,288c.2-.8.2-1.1.8-1.8,1.1-.4,2.3,0,3.5,0-.4,1.3-.8,2.6-1.1,4,0-.2-.3-.5-.4-.7-1.2.3-2,0-3.2-.2l.5-1.3Z"/> <path class="st28" d="M335.4,324.3c1,.2,2,.3,3,.4.3,0,.2,0,.5.1-.9,2.8-1.7,5.8-2.9,8.4,0-1.5.8-6.6-.1-7.7h-.6s.2-1.2.2-1.2Z"/> <path class="st10" d="M379.1,261c1.3-1,2.5-2.1,3.7-3.2-1.1,2.8-2.5,6-3.1,9l-1.6.3c.8-2.1.9-3.9,1-6.1Z"/> <path class="st20" d="m284.3 43.6c2.1 1.3 2.9 4.8 3.6 7.1h-3.5c0.2-2.4-0.1-4.8-0.1-7.2z"/> <path class="st42" d="M149.7,162.3c.5,0,1-.2,1.5-.1.7,0,.7.3,1.1.8,0,.3.1.5-.1.8-1.1.9-4.4.7-5.8.8-.7,0-1.4.1-2,0-.6,0-.6-.2-.9-.7.9-1.1,4.9-1.4,6.3-1.6Z"/> <path class="st43" d="M329.5,264.7c1.4.5,2.8.9,4.3,1.2-2.5.7-7.7,2.6-10,2-.4-.4-.4-.4-.4-1,1.1-1,3.4-.6,4.9-1.3.3-.4.7-.6,1.2-.9Z"/> <path class="st15" d="m355.1 246.2h4.7c-0.3 1.3-0.5 2.6-1 3.8-0.9-0.2-1.8-0.4-2.7-0.5l-1.6-0.3 0.6-3z"/> <path class="st33" d="M390.2,248.6l2.4.2c1.3.2,2.5.2,3.9.1-.4,1-.7,2.3-1.3,3.2-.1-.2-.3-.4-.4-.5-.9-.6-3.6-.5-4.8-.3l-.6.2c.2-1,.6-1.9.9-2.8Z"/> <path class="st28" d="M317.1,243.7h5.5c-.3,1.8-.4,3.6-.8,5.4,0-.6-.1-1.2-.2-1.7-.6-.6-.8-.5-1.6-.6-1-.3-2.2-.8-3.2-.4.1-.9.2-1.8.3-2.7Z"/> <path class="st25" d="M302.5,256.3c1.7.5,3.5.9,5.2,1.4l-1.3.5v.3c-.1,0,.2.4.2.4-.5,1.3,4.7,4.5,4.8,6.6l-.4.3c-2.8-1.3-6.3-7.1-8.6-9.5Z"/> <path class="st15" d="M309.6,320.3c1.3.2,2.6.4,4,.5-.4,2.2-.7,4.5-1.1,6.7,0-1.3-.2-1.7-1.2-2.6-.2-.1-.3-.2-.6-.3-.6-.2-.9-.3-1.5,0,.2-1.4.3-2.9.4-4.3Z"/> <path class="st13" d="M287.7,131.7c3-.4,11.5-.5,13.9,1.1.2.7,0,1.1,0,1.7-3.4-.3-6.8-.8-10.2-.8,1.5-1.3,2.4,0,4-.4,0,0,.2,0,.2,0l-.3.2h.4c0-.4,0-.4-.2-.8-2-1.2-5.5-.9-7.8-.9Z"/> <path class="st33" d="M311.4,324.9c1,.9,1.1,1.3,1.2,2.6-.8,5.4-1.2,11.2-2.6,16.5-.3-3.2.2-6.2.5-9.4.3-3.3.5-6.5.9-9.7Z"/> <path class="st33" d="M225.2,340.3c.8,1,1.1,2.2,1.7,3.3.7,2,2.3,5.4,1.3,7.4,0,.2-.2.2-.3.4-.6,0-.5,0-.9-.3-1.1-.9-1.4-2-1.8-3.3,1.3-2.6.2-4.6,0-7.3v-.3Z"/> <path class="st20" d="m421.5 139.1c2-0.6 5.5-2.1 7.4-1 1 0.6 1.2 1.3 1.6 2.4l-0.3 0.3h-0.5c-2.4-0.5-5.5-0.4-8-0.1l-0.2-1.5z"/> <path class="st15" d="M240.6,282c1.6,0,3.2,0,4.9,0,.2,2,.5,4,.7,6,0-.2-.2-.7-.4-1-.5-.7-1.4-.6-2.2-.7-.7-.5-1.1-.6-1.9-.7-.3-1.2-.7-2.4-1-3.6Z"/> <path class="st18" d="M406.5,124.7c0,1.1,0,2.1.4,3.1h.3c.5-.5.6-1,.8-1.7,0,2.1,0,4.1,0,6.1l-.4,1.9c-.3,1.2-.5,2.5-1,3.6-.4-.4-.7-.9-1.1-1.3-.3-3.6.4-8.2.9-11.8Z"/> <path class="st20" d="M406.5,124.7c0-1.8-.2-4.1.1-5.8.2-.8.4-1.3,1.1-1.8.7-.2,1.2,0,1.9.3-.5,2.9-1,5.9-1.6,8.8-.2.7-.3,1.2-.8,1.8h-.3c-.4-1.1-.3-2.1-.4-3.2Z"/> <path class="st32" d="M378.1,267.1l1.6-.3c-1.1,2.6-2,5.4-3,8-1.7-.3-3.3-.4-4.9-.4,2.1-2.6,4.6-4.4,6.3-7.3Z"/> <path class="st22" d="m409.6 117.3c1 0.9 1.2 1.4 1.3 2.8 0.2 4.3-1.5 8.2-2.9 12.2v-6.1c0.6-2.9 1.1-5.8 1.6-8.8z"/> <path class="st20" d="M278.5,77.3c1.6.5,3.2,1.1,4.7,1.9,0,1.5.8,5.4,0,6.6-.1.2-.3.3-.4.4-2-2.6-3.1-5.8-4.2-8.9Z"/> <path class="st10" d="M217.9,322.9l.4-.3c1.8,1.2,4.6,10.7,5.3,13.2-.2.8-.4,1.6-1.1,2.1-1.6-5-3.1-10-4.6-15Z"/> <path class="st15" d="M273.9,241.3l4.9.2c.2,2.1.4,4.2.5,6.3-.2-.5-.2-.7-.7-1-.5,0-.9,0-1.4,0h-.5c-.3-.5-.6-1-1-1.3-.5-.4-.7-.5-1.3-.4l-.3.8c-.2-1.6-.2-3.1-.3-4.7Z"/> <path class="st28" d="M279.7,320h3.7c.1,4.7.4,9.7,0,14.3-.5-2.2,0-7.4-2-8.9-.5-.4-.7-.4-1.4-.2-.4-1.6-.4-3.5-.4-5.2Z"/> <path class="st32" d="m192.1 347.4c1.8 0.7 3.5 2 5.1 2.9s3.3 1.6 5 2.3v0.5l-7.7 0.7c-0.7-2.2-1.7-4.2-2.4-6.4z"/> <path class="st43" d="M293.6,242.5c2.4-.1,5.1,0,7.4.5-.8,0-1.5,0-2.2.4.1.7.7,1.1,1.3,1.5.7.5,1.3,1,1.8,1.7-2.8,0-5.7-.3-8.6.2v-.2c0-1.3,0-2.6.1-4Z"/> <path class="st15" d="M312.5,284.8h5.2c-.1,2.9-.2,5.8-.7,8.6,0-2.9-1.2-1.7-1.9-3.7-.9-.3-1.7-.5-2.6-.7v-4.2Z"/> <path class="st42" d="M291.4,133.7c3.4,0,6.8.4,10.2.8l-.8,2.8c-2.7-.5-5.5-1.1-8.2-1.4-1.3-.1-4,0-5.1-.2-.3,0-.7-.4-1-.6,1.6-.9,3.1-1.2,4.9-1.3Z"/> <path class="st28" d="M231.2,239c2.1,0,4.2,0,6.2.3.3,2,.8,4.2.9,6.3-.4-.7-.5-1.5-1-2.1l-.6.2-.3.8v.5c.1,0-.4.3-.4.3-1.1-.5-2.2-.6-3.4-.7-.5-1.8-1-3.7-1.4-5.5Z"/> <path class="st43" d="M213.5,281.3c1.2,0,2.3,0,3.5.2,1.6,1.4,2.8,3.2,4.2,4.8-.6.5-1.3.9-2,1.3-.9.6-2,1.1-3,1.6-1.1-2.5-1.7-5.3-2.7-7.9Z"/> <path class="st20" d="M280.6,62.6c1-2.3,2.6-7.9,3.8-9.6.4-.5.8-.5,1.4-.7.6.7.6.9.5,1.8-.2,2.7-1.2,7.7-2.3,10.1-1.1-.6-2.2-1.1-3.4-1.7Z"/> <path class="st31" d="M296.4,251.2c4.2-.8,11.6,0,15.4,2,.4.6.4.7.5,1.4l-.3.7c-1.8.4-5.8-1.3-7.8-1.6-1.8-.3-3.5-.3-5.3-.2l.5-.5c.1-.7.2-.7-.1-1.3-.9-.6-1.7-.5-2.8-.5Z"/> <path class="st20" d="M409.1,136.8c1.8-2.6,5.3-10.6,8.2-11.2,1.3-.3,2.4.7,3.4,1.3-1.5.9-2.7,1.8-4,3-1.6,1.5-5.4,6.7-7.2,7l-.4-.2Z"/> <path class="st24" d="M314.5,133.3c2.4,1.8,9.5-.7,13.2.6.7.4,1.5.9,2.1,1.4,0,0,0,0,0,0-1.9.8-5.5.4-7.7.7-1.9.3-4.1,1.4-6,1.3-.4-1.2-.6-2.6-1.2-3.7,0-.1-.1-.2-.2-.3Z"/> <path class="st49" d="M174.9,446.4c.4,1.2,3,7.5,3.8,7.9.7.3,1.8.2,2.6.3,0,0,0,0-.1,0-1.6.7-2.5.3-4.1-.3-.4,0-.7,0-1.1.1l-.2.4c.3.7.8,1.1,1.4,1.7h.4c0-.1.4-1,.4-1,1.6.2,3.1.3,4.6.3,0,0,0,0,0,0,.3-.4.6-.9,1-1.3.5-.5.9-.4,1.5-.4.3.5.3.3.3.8-.2,1.3-1.3,1.9-2.3,2.6-1.8.1-3.8.4-5.5-.3-1.4-.6-2.1-1.7-2.7-3.1v-.4c-.3-.4-.5-.8-.7-1.2-.7-1.6,0-4.5.6-6Z"/> <path class="st47" d="M344.6,289.3c1.2.2,2,.5,3.2.2.1.2.3.5.4.7-1.1,3.4-5.1,19.7-6.4,20.9-.4-6,4.4-17.5,3.8-21.2h-1.1s0-.6,0-.6Z"/> <path class="st20" d="M280,64.5c1,.5,2,1,3,1.6-.2,1.3-.6,9.6-.8,9.8-.1.1-.3.2-.4.3-1-.4-2.1-.6-3.2-.9,0-3.7.6-7.2,1.3-10.8Z"/> <path class="st28" d="M205.3,280.9c1.5,0,3.1,0,4.6,0,1.2,4.1,2.7,8.3,3.7,12.5-.1.2-.2.5-.4.7-.1.3-.3.3-.6.4-.2-.3-.2-.1-.3-.5-.2-.8-.5-1.6-.8-2.5l-.4-.2c-.7-1.8-1.6-5.5-3.3-6.5-.4-.2-.5-.1-.9,0-.5-1.4-.9-2.7-1.5-4.1Z"/> <path class="st15" d="M193.3,237c1.8.2,3.7.1,5.5,0,.5,2.4,1.3,4.7,2,7-1.4-.2-2.8-.2-4.1-.3h-1c-.3.4-.2.1-.3.5-.8-2.4-1.4-5-2-7.4Z"/> <path class="st31" d="M94.3,171.5c1-2.4,2.5-5,5.1-6.1.7-.3,1.4-.4,2.1-.2,1.1.4,1.8,1.7,2.2,2.7.7,2.2.5,4.8.6,7-1.3-1-1.5-4.1-4-6.3-1.8.6-5,3-5.4,3.1-.3,0-.4-.1-.7-.3Z"/> <path class="st1" d="m315.1 289.6c0.7 2.1 1.9 0.9 1.9 3.7-0.6 5.7-1.5 11.4-2.1 17.1-1.4 0.2-2.7 0.3-4.2 0 0.5 0 1.1-0.2 1.6 0h0.2v-0.2h0.8c0.2-6.9 1.4-13.9 1.8-20.8z"/> <path class="st47" d="M335.2,325.4h.6c.9,1.1.2,6.2.1,7.7-.7,2.2-2.5,9.9-4.2,11.1-.5.3-.2.3-.8.2-1.1-2.2,3.4-15.6,4.3-18.9Z"/> <path class="st32" d="M185.1,292.1h.1s.2.3.2.3c-2.5,2.4-4.8,5.3-5.9,8.6-.4,1.1-.4,2.3-.9,3.4h-.3s-.3-.9-.3-.9c-.9-2.9-1.5-5.9-2.6-8.7,3.2-1,6.4-1.9,9.6-2.6Z"/> <path class="st10" d="M344.5,289.9h1.1c.6,3.7-4.2,15.3-3.8,21.3h-3.5c2.3-6.9,3.9-14.2,6.3-21.3Z"/> <path class="st15" d="M216.2,318.2c1.6.1,3.2.3,4.8.2.9,4.5,2,9.1,3.3,13.5,0,1.4-.6,2.6-.6,3.9h-.1c-.7-2.5-3.5-12-5.3-13.2l-.4.3c-.6-1.6-1.1-3.2-1.7-4.7Z"/> <path class="st2" d="M248.1,319.2c1.6,0,3.2,0,4.8.2.6,6.3,1.5,12.5,2.8,18.7-.3.3-.6.7-.8,1.1l-.2.4c-1.8-1.5-1.5-13.3-4.3-16.1h-.7s-.4.7-.4.7c-.4-1.7-.8-3.3-1.2-5Z"/> <path class="st47" d="M243.5,286.4c.8.1,1.7,0,2.2.7.2.2.3.7.4,1,1.4,6.1,2.7,12.4,3.7,18.6,0,.9.2,1.5-.2,2.4-.4,0-.7.1-1.2.1-1.5-7.6-3.4-15.1-4.9-22.7Z"/> <path class="st4" d="M241.6,285.7c.8.1,1.3.2,1.9.7,1.5,7.6,3.4,15.1,4.9,22.7-1,0-1.6,0-2.4-.6-.3-2.3-.9-4.7-1.4-7l-3-15.8Z"/> <path class="st30" d="M309.3,324.7c.6-.3.8-.3,1.5,0,.3.1.4.2.6.3-.5,3.2-.6,6.5-.9,9.7-.3,3.2-.8,6.2-.5,9.4,0,.4-.1.7-.2,1-.7.6-1.8.6-2.7.8.6-7.1,1.7-14.1,2.2-21.2Z"/> <path class="st23" d="M342.2,265.2c1.4.7,2.4,1.8,3.4,2.9-.6,1.7-1.1,3.4-1.8,5.1-1.6,0-3.1,0-4.7-.2v-.2c0,0,0-.3,0-.3h1.2c0,0-.2-.2-.2-.2-.9-.3-1.8-.8-2.5-1.5-.4-.5-.7-1.6-.6-2.3.4-2.1,3.5-1.7,4.9-3.1,0,0,.1-.2.2-.2Z"/> <path class="st20" d="M244.1,110.2c2.2-4.8,1.4-14.4,4.6-17.9,1.5-1.6,3.2-1.8,5.2-1.9-.2.9-.3,1.9-.9,2.5h-.3c-1.3.4-2.6,1.2-3.2,2.5-.4,1-.6,2.4-.8,3.5-.8,3.8-1.5,8.4-3.7,11.7l-.5.2c-.3-.2-.4-.3-.5-.7Z"/> <path class="st11" d="M284.4,265.2c0-.4,0-.6.3-.9.5-.5,1.2-.6,1.9-.6,1.1,0,1.4.4,2.1,1.1l1-.4c.1,1.6.2,2.7,1.4,3.8,1.1.9,2.9,1.2,4.3,1.1,0,0,.2,0,.3,0-.7.7-1.4,1.4-2.2,2.1-2.9-.3-5.9-.5-8.8-.7,0-1-.1-2-.2-3v-2.5Z"/> <path class="st40" d="M284.4,265.2c0-.4,0-.6.3-.9.5-.5,1.2-.6,1.9-.6,1.1,0,1.4.4,2.1,1.1.1,1.3.3,2.3-.6,3.3-.5.6-1,.9-1.8,1-.6-.2-1-.4-1.5-.8l-.3-.7v-2.5Z"/> <path class="st14" d="M187,146.9c4.2,2.9,6.2,6.4,8.9,10.6-2.3.4-4.5.8-6.7,1.3-.2-1.6-.4-3.1-.8-4.7-.5-1.8-1.5-4.3-1.6-6.1,0-.4.1-.7.2-1.1Z"/> <path class="st28" d="M276.9,283.2c1.5.1,3.1.3,4.6.3,0,4.7,1.9,23.2,1,26.1-.6.4-.8.3-1.5.2v-.3c0-3.3-.3-20.6-1.5-22.4-.8-.4-1.4-.6-2.3-.7,0-1.1-.2-2.2-.3-3.3Z"/> <path class="st18" d="M170.4,280c6,.5,11.4,2.3,17.1,4-.5.5-.9,1-1.6,1.1-4.6-.4-9.2,0-13.8,0-.4-1.8-1.1-3.5-1.7-5.2Z"/> <path class="st25" d="M301.1,243c4,.2,8.3.2,12.2.8-.2,1.9-.3,3.8-.4,5.7-3.6-1.2-7.1-2.2-10.9-2.9-.6-.7-1.1-1.2-1.8-1.7-.6-.4-1.2-.8-1.3-1.5.6-.5,1.4-.4,2.2-.4Z"/> <path class="st30" d="M280.2,325.2c.6-.1.8-.2,1.4.2,2,1.5,1.4,6.6,2,8.9,0,1.6.8,12.3.4,12.8-.3,0-.5.1-.8.1-.6,0-1-.2-1.5-.6-.7-1.5-1.3-18.2-1.5-21.5Z"/> <path class="st10" d="M312.5,289c.9.2,1.7.4,2.6.7-.4,6.9-1.7,13.9-1.8,20.8h-.7s0,.2,0,.2c0,0-.1,0-.2,0-.5-.1-1.1,0-1.6,0-.6-2.1,1.5-18.2,1.8-21.6Z"/> <path class="st3" d="M249.3,324.2l.4-.7h.7c2.7,2.7,2.4,14.5,4.3,16l.2-.4c.2-.4.5-.7.8-1.1.6,3.7,1.3,7.5,2.2,11.2-.9,0-1.7,0-2.6-.2-.1-.1-.4-.2-.4-.3-.8-1.5-4.8-21.5-5.5-24.6Z"/> <path class="st12" d="m271.4 258.4c0.8 2.2 0.7 9.2 0.8 11.9h-8.5c-0.5-0.2-0.3 0-0.7-0.4 0.6-3.1 5.9-9.1 8.3-11.3z"/> <path class="st22" d="M304.6,59.8c2.3,3.1,4.7,6.7,5.6,10.5-1,2-2.5,4.2-4.1,5.8-2-3-1.8-9.7-3.6-12.2.7-1.4,1.4-2.7,2-4.1Z"/> <path class="st10" d="M274.1,245.9l.3-.8c.6,0,.8,0,1.3.4.4.3.8.8,1,1.3-.7,3.5.4,8.2.7,11.7.2,3,.2,5.9.5,8.9.2,1.8.7,4,.4,5.9-.7.2-1.2.2-1.9.2-.8-3.3-.8-7-1.1-10.3l-1.2-17.2Z"/> <path class="st12" d="M277.3,339.6c-7.8-4.4-13.6-10.8-16.4-19.4l.3-.3c1.3.3,1.7.4,2.5,1.6.7,1.2,1.2,2.5,2,3.6,2,3,5.5,7.3,8.8,8.9.7.3,1.4.5,2.1.7,0,0,0,0,.1,0,.2,1.6.4,3.2.7,4.8Z"/> <path class="st48" d="M56.1,177.3l.2,1h.2c.6,3.2,1.6,6.1,3.3,8.8.5.7,1.1,1.4,1.5,2.1,3.8,3.2,7.9,4.7,12.9,4.3,2.3-.2,4.6-.7,6.8-1.4,2.5-.8,6.2-3.2,8.8-2.7.5.5.5.8.6,1.5-8.5,2-18.6,7-27,1.8-.9-.5-1.7-1.1-2.4-1.8-1-.7-1.8-1.8-2.5-2.7-2.3-3.2-3.1-6.9-2.5-10.8Z"/> <path class="st47" d="M320,246.8c.8,0,1,0,1.6.6,0,.6.1,1.2.2,1.7-1,8.6-1.6,17.2-2.8,25.8-.6,0-1.5.1-2.1,0,.9-1.2,1.3-24,3.2-28.1Z"/> <path class="st10" d="M277.2,286.5c.9.1,1.5.3,2.3.7,1.2,1.8,1.5,19.1,1.6,22.4v.3c-1.1,0-1.9,0-2.5-.6-.7-3-.6-6.4-.8-9.5-.3-4.4-.6-8.8-.6-13.3Z"/> <path class="st13" d="M231.8,346.7l.3-.5c3.2-1.8,6.4-2.8,9.5-5,1.5-1.1,4.8-4.1,6.5-4.4l1.2,3.9c-2.7,1.8-13.5,8.4-16.2,7.9-.6-.1-.6-.4-.9-.9-.1-.3-.2-.7-.3-1.1Z"/> <path class="st8" d="M236,245.2l.5-.3v-.5c-.1,0,.2-.8.2-.8l.6-.2c.5.7.6,1.4,1,2.1.7,3.7,4.6,23.8,3.7,26.3-.6.3-1.2.3-1.8.3,0-3.3-.9-6.9-1.6-10.2-.7-3.7-1.3-7.3-2-11-.3-1.7-.9-4-.7-5.7Z"/> <path class="st33" d="M196.6,243.9c1.4,0,2.8,0,4.1.3,2.3,8.8,4.8,17.7,6.9,26.5-1,.1-2,.2-3,.4.3-.3.4-.4.4-.8,0-2-4.8-18.5-5.8-21.1-.7-1.8-1.5-3.8-2.8-5.3Z"/> <path class="st19" d="M298.1,70.8c1.9-2.1,3.1-4.4,4.4-6.8,1.8,2.5,1.5,9.2,3.6,12.2-1.6,1.8-3.3,3.4-5,5.1-.9-3.5-1.9-7-2.9-10.4Z"/> <path class="st15" d="M108.8,180.5c.2,1,.5,1.8.9,2.6-.1,1.9,0,3.8.2,5.7,4.2,2.7,9.7,6.7,12.1,11.2v.8c-.6-.4-1.2-.9-1.9-1.3-.7-.4-1-.3-1.7,0-3.8-2.4-7.4-5.1-11.1-7.7.2-3.5.3-8.1,1.6-11.4Z"/> <path class="st47" d="M276.7,246.8h.5c.5,0,.9,0,1.4,0,.5.4.5.5.7,1l1.1,16.3c.2,3.1.1,6.3.7,9.4-1.5.3-3,.2-4.5.3v-.3c.6,0,1.1,0,1.7-.2.3-1.8-.2-4-.4-5.9-.3-3-.3-5.9-.5-8.9-.3-3.6-1.4-8.2-.7-11.7Z"/> <path class="st10" d="M232.6,244.5c1.2,0,2.3.2,3.4.7-.3,1.7.4,4,.7,5.7.6,3.7,1.3,7.3,2,11,.6,3.3,1.6,6.8,1.6,10.2-.7,0-1.1,0-1.8-.2-1.7-2-4.7-23.2-5.9-27.3Z"/> <path class="st10" d="M195.3,244.5c0-.4,0-.2.3-.7h1c1.3,1.6,2.1,3.6,2.8,5.4,1,2.5,5.8,19.1,5.8,21.1,0,.4-.1.5-.4.8h-1.5c-.2-.3-.4-.4-.5-.5-.7-.9-6.5-22.8-7.4-26.1Z"/> <path class="st10" d="M316.8,246.4c1-.4,2.2,0,3.2.4-2,4-2.3,26.9-3.2,28.1-.7,0-1.3,0-1.9-.3-1-2.1,1.7-24,1.9-28.1Z"/> <path class="st11" d="M181.6,143.7c1.9.9,3.6,2,5.3,3.2-.1.4-.3.7-.2,1.1,0,1.8,1.1,4.3,1.6,6.1.4,1.5.6,3.1.8,4.7-1.8.4-3.7.9-5.5,1.5-.1-3.6-2.7-14.6-2-16.6Z"/> <path class="st42" d="M224.9,318.5c2.8-.1,5.6-.2,8.4,0,.5.1,1,.2,1.5.4.3.6.3.9.2,1.5-.7,2.9-3.4,6.8-5.9,8.3-.5.3-1.1.7-1.7.5,0,0-.2,0-.3-.1-.5-1.9-.9-3.7-1.5-5.6-.4-1.4-1.3-3.3-1.3-4.8l.5-.2Z"/> <path class="st13" d="M225.7,323.5c-.4-1.4-1.3-3.3-1.3-4.8l.5-.2c1.7.3,3.4.2,5.1.2-1.2,1.5-2.8,3.8-4.4,4.8Z"/> <path class="st49" d="M332.3,423.5c5.3-.2,10,.9,14,4.6,4.3,4,6.9,9.2,7.1,15,.2,5.2-1.2,10.4-4.7,14.3-.1.1-.3.3-.4.4-.4-.2-.8-.3-1.2-.4,2.7-3.9,4.4-8.5,4.5-13.3.1-4.9-1.8-10-5.2-13.6-4.1-4.2-8.7-6.4-14.6-6.4l.6-.3v-.5Z"/> <path class="st10" d="M206.8,285c.4,0,.5-.2.9,0,1.7,1,2.7,4.7,3.3,6.5l.4.2c.3.8.6,1.6.8,2.5.1.4,0,.2.3.5.3-.1.4,0,.6-.4.1-.2.2-.5.4-.7.8,3,4.1,12.7,3.5,15.1-.8.4-1.5.3-2.4.1-.4,0-.5,0-.9-.2-.4-.2-.5-.7-.7-1.1-.8-2.6-1.4-5.4-2.2-8.1-1.3-4.8-2.8-9.6-4.2-14.3Z"/> <path class="st33" d="M211.1,291.6l.4.2c.3.8.6,1.6.8,2.5.1.4,0,.2.3.5.3-.1.4,0,.6-.4.1-.2.2-.5.4-.7.8,3,4.1,12.7,3.5,15.1-.8.4-1.5.3-2.4.1.7,0,1.3-.1,2-.2l.2-.4c-2.5-2.6-5.1-13-5.7-16.7Z"/> <path class="st46" d="m285.8 52.4c1.8 0.5 2.3 0.8 3.2 2.5 2.4 4.4 4.3 9.4 6.1 14.1l-11.1-4.8c1.1-2.4 2.1-7.4 2.3-10.1 0-0.9 0-1.1-0.5-1.8z"/> <path class="st32" d="m359.2 322.9c0.5 2.2-5.1 16.5-6.1 19.6-3.8 0-7.6 0.4-11.4 0.9 0.1-0.7 4.6-3.9 5.5-4.6 6-5 8.1-9.4 12-15.8z"/> <path class="st20" d="M176.8,134.1c.9-1.9,1.8-3,3.6-4.1,6.7,2.4,14.8,9.4,18,15.7l-.4.2v.6c.6.3.6.3.8.9l-.3.2-.5-.2-.3-.8c-.2,0-.4,0-.6.1-1.2-.7-2.5-2.7-3.5-3.7-4.1-3.9-10.9-8.6-16.7-8.9Z"/> <path class="st32" d="M363.7,286.9c2.9,0,5.8.3,8.7.4l-5.9,16.5c-.7,2.1-1.4,4.1-2.3,6.1.4-7.8,1.3-15.2-.4-22.9Z"/> <path class="st22" d="M269.6,113.6c2.6-1.1,4.9-1,7.5,0,4.1,1.7,7,5.6,8.6,9.6.4,1,.9,2.3.4,3.4-.2.4-.5.4-.9.5-.7.2-1.4.2-2.1.3-.1-.9-.2-1.8-.5-2.7-.7-2.3-2.1-4.5-4.2-5.6-2.6-1.4-5.1-.6-7.7.3l-1.4-.6c.7-1.2,1.1-2.5,1.5-3.8h.7c.2-.4.4-.8.5-1.3-.7,0-1.5,0-2.2,0Z"/> <path class="st22" d="M310.6,73.4l.3.3c.4,2.6.1,5.3-.4,7.9-.7,3.5-2.7,7.9-5.9,9.8-.4.2-.4.3-.9.1l-.3-.6c-.7-2.6-1.3-5.2-1.9-7.7,3.3-3,6.5-6.1,9.1-9.8Z"/> <path class="st22" d="m345.9 98.4 2.6 0.7c-1.1 3.4-2.6 6.6-3.8 9.9-0.9 2.5-5.3 17.8-6 18.6h-0.3l-2.5-0.1c-0.3-3.3 8.3-24.6 10.1-29.2z"/> <path class="st31" d="M135.2,168.6c3.5-.2,16.2-1.4,18.7-.7.4.5.7,1,1,1.6-2.5.5-5.5.3-8.1.4-4.6.1-9.2.4-13.8.7-3.9.4-7.8.8-11.7,1-2.5.1-5.4,0-7.8.4-.7,0-1,0-1.6-.3-.4-.6-.4-.6-.3-1.3.6-.7.9-.6,1.8-.8,7.3-.3,14.6-.9,21.9-1Z"/> <path class="st43" d="M187.6,284c1.4.5,2.8,1,4.2,1.6,1.9.5,3.5,1.7,5.1,2.7-7.9-1-15.6.3-22.8,3.6-.7-2.2-1.3-4.4-1.9-6.7,4.6-.2,9.2-.5,13.8,0,.7-.2,1.1-.7,1.6-1.1Z"/> <path class="st19" d="M187.6,284c1.4.5,2.8,1,4.2,1.6-1.8.9-4,0-5.8-.4.7-.2,1.1-.7,1.6-1.1Z"/> <path class="st25" d="M430.4,140.5c.2,1.2.5,2.4-.3,3.5-1.2,1.6-4.2,1.9-6.1,2-2.5.2-11.6-.2-13.3.8,0-.7,0-1.5,0-2.2,0-1.3-.1-2.2.4-3.4.5,0,.9.1,1.4,0l.3.6c1.1.7,4.4-.5,5.8-.7l3.1-.6c2.5-.3,5.6-.4,8,.1.2,0,.3,0,.5,0l.3-.3Z"/> <path class="st11" d="M56.1,177.3c.3-1.4.6-2.9,1.2-4.2,1.6-3.7,4.5-6.5,8.2-8,6.6-2.6,13.6.2,19.7,3,.1.1.2.3.3.4.4.5.7.6,1.4.8v.3c0,0-1,.4-1,.4-3.7-1.7-8.2-2.5-12.3-2.5-4,0-8.4.3-11.4,3.2-2.8,2.7-2.1,4.7-3.4,7.5-.2.4-.3.4-.7.5,0,0,0,0,0,0l-1.5-.2h-.2c0-.1-.2-1.2-.2-1.2Z"/> <path class="st22" d="M291.9,50.1c.4.2.3,0,.5.3,3.3,3.1,7.2,5.9,10.9,8.4-1.3,2.6-2.8,5-4.4,7.5l-1.6,2.3c-1.9-5.8-5.2-10.8-7.8-16.3.8-.7,1.5-1.5,2.3-2.3Z"/> <path class="st31" d="M339.1,273l-9.2-.3c-1.7,0-3.5,0-5.2-.1-.6,0-1.1,0-1.5-.6,0,0,0-.2.1-.2.7-1.1,3-1.2,4.2-1.5,1.9-.4,7-1.8,7.8-3.7.2-.4.3-.7.1-1.1-.9-2.3-8.7-3.8-11-5-.3-.6-.3-.7-.3-1.3.3-.3.3-.3.8-.4,2.4-.4,10.9,2.7,13.1,3.8,1.5.7,2.8,1.7,4.1,2.6,0,0-.1.2-.2.2-1.3,1.4-4.5,1-4.9,3.1-.1.7.1,1.8.6,2.3.7.7,1.6,1.2,2.5,1.5l.2.3h-1.2c0,0-.2.2-.2.2v.2Z"/> <path class="st13" d="M189.1,336.8c-.1-.8-.3-1.2,0-1.9.7,0,1,.1,1.5.6,1.7,1.4,3.1,3.4,4.9,4.7.9.6,1.9,1,2.8,1.5,7,4,14.4,5.7,22.6,5.5l1.1,2.9c-5.4.1-11.1-.1-16.3-1.5-6.5-1.8-13.2-5.9-16.7-11.9Z"/> <path class="st22" d="M382.3,248.1c.7,0,1.4,0,2,.5-.4,2.7-4,6.3-6.2,8-1.3,1-2.8,1.8-4.4,2.2-.1.5,0,.8,0,1.3.4,1.9.2,4-.2,5.9-2,2.7-5.5,6.1-8.3,7.9-1.4,0-2.8.1-4.2.1,1.2-2.3,6.7-3.9,9.3-10.1-1-2.1-2.2-4.1-3.1-6.2,8.9-2.9,8.9-1.9,15-9.6Z"/> <path class="st19" d="M215.6,151.5c-.7-8-.3-16.9,2.3-24.6,1.4,4.2.2,8.6,1.9,12.7.4,2,1.4,4.1,3.1,5.4,3.1,2.1,7.7,1.6,11.2,1.5-1.3.4-2.7.9-4.1,1.2-5,.7-9.8,2.1-14.5,3.8Z"/> <path class="st10" d="M354.6,249.2l1.6.3c.9.1,1.8.3,2.7.5l-.8,2.4c-.5,2.6-6.1,23.3-6.9,24.2-.6,0-1.2,0-1.8,0-.7,0-1.4,0-1.9-.5.5-3,1.5-5.9,2.2-8.8,1.6-6.1,3.2-12.1,4.8-18.2Z"/> <path class="st30" d="M356.2,249.5c.9.1,1.8.3,2.7.5l-.8,2.4c-1.1,1.3-2.1,2.8-3,4.3.4-2.4.9-4.9,1-7.3Z"/> <path class="st47" d="M355.1,256.8c.9-1.5,1.9-3,3-4.3-.5,2.6-6.1,23.3-6.9,24.2.2-.8,0-1.5,0-2.4-.5-3.5,2.9-13.6,4-17.6Z"/> <path class="st48" d="M154.9,169.5c1,1.5,1.6,3.4,2.3,5.1-1,.4-5.4-.4-6.8-.5-7.2-.3-14.4,0-21.6-.5-2.4-.2-4.6-.8-6.9-1.1-2.8-.4-5.6-.3-8.4-.4,2.4-.5,5.3-.3,7.8-.4,3.9-.2,7.8-.5,11.7-1,4.6-.4,9.2-.6,13.8-.7,2.6,0,5.6.1,8.1-.4Z"/> <path class="st48" d="m261.2 319.8c4.9 0 9.9 0.1 14.8 0 0.1 5 0.5 10 0.7 15h-0.1c-0.7-0.3-1.4-0.4-2.1-0.7-3.3-1.6-6.8-5.9-8.8-8.9-0.8-1.2-1.3-2.4-2-3.6s-1.2-1.3-2.5-1.6z"/> <path class="st49" d="M197,424.7c4.1,0,7.4.7,10.4,3.7,3.8,3.8,6.6,9.6,6.6,15,0,6.7-2.5,12.3-7.3,16.9-4.1,4-9.9,6.1-15.5,6-5.6-.1-12-2.5-15.9-6.7-.3-.3-.6-.6-.8-1,.3-.5.2-.8.2-1.4,4.1,4.5,9.9,7.4,16,7.7,5.3.2,10.7-1.6,14.6-5.2,4-3.7,6.8-9.6,6.9-15.1,0-5.2-1.9-10.2-5.5-14-2.7-2.8-6.1-4.4-9.7-5.9Z"/> <path class="st6" d="M343.1,321.3c3.7.4,7.6.4,11.3.5-3,5-5.6,9-9.9,13-1.7,1.4-3.8,3.6-5.9,4.2l.2-.3-.6-.3h.3c.6-2.9,1.7-5.6,2.5-8.4.8-2.9,1.4-5.8,2.1-8.7Z"/> <path class="st45" d="M176.3,427.6c5.5-1.2,6.3-3,12.8-2.4-.8.2-1.6.4-2.4.6-5.9,1.5-9.5,4.6-12.6,9.7l1,.3c-1.3,3.4-1.6,7.2-.2,10.6-.7,1.5-1.3,4.4-.6,6,.2.4.4.8.6,1.2-.5-.5-1-.9-1.5-1.4l-.5.2c.4,1.7.9,3.3,1.8,4.8,0,.6,0,.9-.2,1.4-3.6-4.7-5.5-9.9-5.4-15.9,0-6.1,3.1-11.1,7.3-15.2Z"/> <path class="st26" d="M174.1,435.5l1,.3c-1.3,3.4-1.6,7.2-.2,10.6-.7,1.5-1.3,4.4-.6,6,.2.4.4.8.6,1.2-.5-.5-1-.9-1.5-1.4l-.5.2c-.1-.4-.2-.9-.3-1.3-.9-4.3-.9-11.9,1.6-15.7Z"/> <path class="st32" d="M263.1,334.1c1.3,1,2.4,2.4,3.6,3.5,3.2,3.1,6.4,5.2,10.4,7l.3,2.8-3.3.2-12.4.9c-.6-3.6-1.2-7.1-1.7-10.7,1.1-1.2,2.4-2.2,3-3.7Z"/> <path class="st47" d="M190.3,438.2c2.4,0,4.6.6,6.4,2.4,1.2,1.2,1.9,2.8,1.8,4.5,0,1.2-.5,2.5-1.2,3.5l-.5.7c-1.1,1.3-2.2,2.1-4,2.2-1.1,0-2.5,0-3.5-.3h-.3c-1-.7-1.9-1.3-2.6-2.3-1.2-1.6-1.3-3.2-1-5.1,0-.4.2-.8.3-1.2.9-2.3,2.6-3.4,4.7-4.4Z"/> <path class="st30" d="M194.3,448.3c.3-.6.5-1.1,1-1.7h.5c.7.3,1.1,1.2,1.5,2l-.5.7c0-.2-.1-.3-.3-.5-.5-.6-1.4-.5-2.2-.6Z"/> <path class="st10" d="M185.3,443.8c0-.4.2-.8.3-1.2.9-2.3,2.6-3.4,4.7-4.4l1.2.4c-.2.7-3.8,3.5-4.6,4.5-.2.3-.5.6-.8.9h-.5c0,0-.4-.3-.4-.3Z"/> <path class="st10" d="M194.3,448.3c.7,0,1.6,0,2.2.6.2.2.2.3.3.5-1.1,1.3-2.2,2.1-4,2.2-1.1,0-2.5,0-3.5-.3,1.2-1.4,3.5-2.2,5.1-2.9Z"/> <path class="st42" d="M103.8,182.4c.3-.9.3-2.3.5-3.3,0,4.9.2,14.1-3.3,17.8-.7.7-1.6,1.2-2.6,1.2-1.4,0-2.5-.7-3.4-1.7-2.8-3-2.4-8.5-2.2-12.4,0-.5,0-.9.2-1.3v-.5c1.7,1.1,3.8,3.4,6,2.8.9-.2,1.7-.8,2.4-1.4.4-.6.7-1.2,1.2-1.7.7,0,.7,0,1.2.5Z"/> <path class="st48" d="M92.9,182.3c1.8,1.1,3.9,3.4,6.1,2.8.9-.2,1.7-.8,2.4-1.4.2,1.2,0,2-.4,3.1-.1.5-.3,1-.4,1.4-.8,2.2-1.4,3.6-3.3,5-1-.4-2.4-.8-3.2-1.5-2.1-1.8-.9-6.1-1.2-8.7,0,0,0-.2,0-.2v-.5Z"/> <path class="st46" d="M252.7,92.9h.3c.4,4.2.9,8.4,1.2,12.6.2,3,.3,6,.7,9-1.7,0-3.3,0-5-.3-2.7-.5-5.4-1.3-8.1-2.1l-.2-.4c.7-.3,1.5-.7,2-1.2,0,0,.2-.2.3-.3.2.4.2.4.5.7l.5-.2c2.1-3.3,2.9-7.9,3.7-11.7.2-1.1.4-2.5.8-3.5.5-1.3,1.9-2.1,3.2-2.5Z"/> <path class="st19" d="M252.7,92.9h.3c.4,4.2.9,8.4,1.2,12.6.2,3,.3,6,.7,9-1.7,0-3.3,0-5-.3.5-.2.7-.2.8-.8.3-1.2.2-2.7.3-3.9.2-4.8-.4-12.2,1.6-16.5Z"/> <path class="st23" d="M94.3,171.5c.2.2.4.4.7.3.4,0,3.6-2.5,5.4-3.1,2.5,2.2,2.7,5.3,4,6.3.2,1.3,0,2.8,0,4.1-.2,1-.1,2.4-.5,3.3-.5-.4-.5-.6-1.2-.5-.5.5-.8,1.1-1.2,1.7-.6.6-1.5,1.2-2.4,1.4-2.2.6-4.3-1.7-6.1-2.8.2-3.4.2-7.5,1.4-10.7Z"/> <path class="st43" d="M270.6,119.2c2.6-.8,5.1-1.7,7.7-.3,2.2,1.1,3.6,3.3,4.2,5.6.3.9.4,1.8.5,2.7-5.2.9-10.4,2.2-15.3,4-.5-.9-.7-1.5-.7-2.5-.1-3.8.9-6.8,3.5-9.7Z"/> <path class="st43" d="M253.9,90.4c2,.6,3.2,1.2,4.2,3.1,3.2,5.9.4,14.2,6.8,18.3-3.2,1.3-6.4,2.5-9.9,2.6-.5-2.9-.5-6-.7-9-.3-4.2-.9-8.4-1.2-12.6.6-.6.7-1.6.9-2.5Z"/> <path class="st10" d="M108.8,180.5c0-.7-.2-1.6.2-2.2,5.8.5,19,12.1,22.7,16.5,4.1,4.8,7.4,10.1,10,15.8l-.3,1.5c-2.2-2.6-3.9-5.7-6-8.4-6.9-9-15.4-15.8-25.7-20.6-.4-.9-.7-1.7-.9-2.6Z"/> <path class="st46" d="M283,66c4.2,2.1,8.5,3.5,12.8,5.3,1.1,3.5,2.1,7,2.9,10.6-5.5-1.7-11.7-3.3-16.9-5.7.1-.1.3-.2.4-.3.1-.2.5-8.5.8-9.8Z"/> <path class="st19" d="M437.9,82.7c.1,0,.2,0,.4,0,.1,0,.2,0,.4-.1h.3c0,.1,0,.3,0,.3l-.4.6.4.5c-3,10.6-9.4,20.9-15.7,29.8-2,2.8-4.2,6.3-7.3,8-.4.2-.7.3-1.2.2-.7-.9-.2-2.5,0-3.6,1.5-2.8,3.8-5.3,5.8-7.8,2.9-3.6,5.8-7.3,8.3-11.2,1.6-2.5,3-5.1,4.3-7.8,1.3-2.8,2.7-6.6,4.8-8.9Z"/> <path class="st46" d="M283.2,79.2c5.3,1.9,10.5,3.7,15.9,5.2.4,3,.8,5.9,1.2,8.9-6.2,0-11.5-.7-16.1-5.3-.5-.5-1.1-1.1-1.5-1.7.2-.1.3-.2.4-.4.9-1.2.2-5.1,0-6.6Z"/> <path class="st12" d="M319.4,303.3l.2.5c3.1.6,12.2-6.1,14.6-8.3,1.4-1.3,3.3-3.8,4.9-4.6.2-.1.8,0,1-.1-1.5,5.8-3.8,11.4-4.9,17.3-5.4-.3-10.9-.2-16.3-.5,0-1.5.1-3,.4-4.4Z"/> <path class="st12" d="M287.2,320.2c6.1.1,12.3.5,18.4.2-.3,3.4-.5,6.8-.9,10.2-6.2.2-11.8-2.8-17.3-3.1,0-2.5-.1-4.9-.2-7.4Z"/> <path class="st33" d="M315.8,279c6.4,0,12.6.5,19,.7,8,.3,16.1.4,24.1.7,5.2.2,10.7.6,15.9.4-.3.9-.5,1.7-.9,2.6-17.8,0-35.5-1.1-53.3-1.8-4-.1-8.1-.2-12.1-.3-2.6,0-5.5,0-8-.4,2.3-.2,4.5-.1,6.7-.5h-.4c0,0,1.1-.4,1.1-.4h-.5c2.6-.9,5.7-.8,8.4-.9Z"/> <path class="st20" d="M153,55.2c-.1-4.4,3.4-13.6,5.6-17.5,2.6-4.7,7.9-11.5,13.4-12.9,1.7-.4,3-.4,4.5.5l-.5,2.2c-5.1,4.4-12.8,6.5-15.5,13.3-1.3,2.4-2.5,4.8-3.4,7.4-.4,1.3-.7,2.8-1.3,4-1.5,9.2-2.2,18-1.3,27.3-.1,1-.3,1.6-1,2.5-1.1-8.5-2.2-18.3-.4-26.8Z"/> <path class="st27" d="M153,55.2c.3,2.5,0,4.9-.2,7.3-.2,4-.2,8.3.4,12.3v.4c0,0-.3-.1-.3-.1l.5.2-.2-.6.2.3v-.3c-.2-3.7.2-20.3,2.2-22.5-1.5,9.2-2.2,18-1.3,27.3-.1,1-.3,1.6-1,2.5-1.1-8.5-2.2-18.3-.4-26.8Z"/> <path class="st24" d="M293.5,204.9l.4,1c2.5.8,5.7.5,8.4.8,1.1.1,2,.6,3,.8-1.9,5.2-1.9,10.5-1.8,16-3.2,0-6.4,0-9.6-.1-.4-6.1,0-12.3-.3-18.4Z"/> <path class="st7" d="M348.2,457.9c-.5.7-1,1.3-1.5,1.9-3.8,4.2-8.6,6.4-14.2,6.6-6.3.3-11.9-1.7-16.5-6-4.1-3.8-6.9-9.8-7.1-15.4-.1-5.1,1.9-11.4,5.5-15.2,1.4-1.4,3.1-2.3,4.8-3.2,4.6-2.4,7.9-3.1,13.1-3v.5s-.6.3-.6.3c-5.8.7-11.2,3.2-14.8,7.8-2.2,2.8-4,6.8-4.5,10.4-.7,2-1.1,6.7-.3,8.7,1.3,4.7,4.7,9,8.9,11.3,4.5,2.6,9.8,3.3,14.8,1.8,4.2-1.2,8.3-3.4,11.1-6.8.4.1.8.2,1.2.4Z"/> <path class="st5" d="M358.6,87.1c.4,2,0,4,0,6-.5,1.1-.8,2.2-1.9,2.7-2.6,1-8.9-.8-11.8-1-11.8-.8-24.4,5.4-30.3,15.7-1.4,2.5-2.2,5.2-3,7.9-.4-2.6,1.4-4.6.2-6.9,2.6-5.1,7.1-10.1,11.8-13.3,5.3-3.6,16.1-8.2,22.7-8.3,3,0,6,.7,8.9,1.2.6,0,1.4.2,1.9-.2,1.1-.8,1.4-2.4,1.5-3.7Z"/> <path class="st25" d="M358.6,87.1c.4,2,0,4,0,6,0,0-.2.1-.3.2-2.2,1.2-7.4-.3-9.9-.6-1.1-.1-2.3,0-3.3-.4,1.2-.8,5.2.4,6.8.6,1.3.2,2.4.4,3.5-.4.2-.7.2-.7-.1-1.4.6,0,1.4.2,1.9-.2,1.1-.8,1.4-2.4,1.5-3.7Z"/> <path class="st23" d="M217.1,292.8c6-3,10.9-6.6,17.5-8.1.6.2,1.2.3,1.8.6-1.7,1.5-3.4,2-4.9,3.9-1.3,1.9-2.6,3.7-3.8,5.6.8,3.7,1.1,7.4,1.7,11.1-2.5,0-5-.1-7.4,0-.3,0-.6,0-.9-.1-1.7-2.1-3.2-9.9-4-12.9Z"/> <path class="st13" d="M231.4,289.1c0-.1-.1-.2-.2-.3-.4-.4-.7-.5-1-1,0,0,.1-.1.2-.2.5-.4,5.3-2.4,5.9-2.4-1.7,1.5-3.4,2-4.9,3.9Z"/> <path class="st42" d="m234.6 284.6c1-0.1 1.8-0.3 2.7 0.1 1.5 1.6 4 18.3 4.6 21.5-4.4-0.2-8.9-0.2-13.4-0.3-2.1 0-4.4 0-6.5-0.2 2.4-0.2 5 0 7.4 0-0.7-3.7-0.9-7.4-1.7-11.1 1.2-1.9 2.5-3.7 3.8-5.6 1.5-1.8 3.3-2.4 4.9-3.9l-1.8-0.6z"/> <path class="st48" d="M352.6,286.4c2.1.1,4.2,0,6.3,0,1.7,7.5,1.2,14.9.6,22.5h-4.6c-2.6-.2-5.3-.2-7.9-.5,1.7-7.4,4.3-14.6,5.6-22.1Z"/> <path class="st42" d="M56.5,178.5l1.5.2c0,1.3,1.3,2.5,2.2,3.4,3.1,3.1,6.6,5.5,11.1,5.5,4.6,0,10.5-2.8,13.9-5.7,1.9-.8,3.9-1.1,6-1.4.2,3.5-.9,6.9-.8,10.4-.1-.7,0-1-.6-1.5-2.6-.5-6.3,1.9-8.8,2.7-2.2.7-4.5,1.2-6.8,1.4-5,.4-9.1-1-12.9-4.3-.4-.7-1.1-1.4-1.5-2.1-1.7-2.7-2.7-5.5-3.3-8.6Z"/> <path class="st32" d="m145.4 187.1h0.9c0.5 0 0.7 0.2 1.1 0.5 2 2 3.7 3.4 6.3 4.5-3.5 5.8-5.9 12.8-6.6 19.6-0.7-1.8-1.5-3.5-2.2-5.2-3.2-6.9-8.3-13.3-13.8-18.6 4.8-0.1 9.6-0.4 14.4-0.6z"/> <path class="st9" d="M284.4,132c1.1-.1,2.2-.2,3.3-.2,2.3,0,5.8-.2,7.8.9.2.4.3.4.2.8h-.4s.3-.3.3-.3c0,0-.2,0-.2,0-1.5.4-2.5-.8-4,.4-1.8.1-3.3.5-4.9,1.3-.9.6-1.8,1.3-2.7,1.9,19.6,7.5,28.1,8.8,48,0h.3c0-.1-2.4-1.7-2.4-1.7-.6-.5-1.4-1-2.1-1.4,1.1-.6,1.7-.7,3-.3,1.1.4,3,1.2,3.6,2.4.2.4.1.8,0,1.1-.7,1.9-3.6,2.9-5,4.3-2.2.4-4.5,1.3-6.6,2.1-8,2.9-13.5,4.8-22.3,3.4-3.7-.6-16.5-4.8-18.6-7.7-.3-2,.7-4.1,1.7-5.8l.2-.3h-.2s0-.3,0-.3l1-.8Z"/> <path class="st31" d="M321.3,285.5c6.9-.1,13.8,0,20.6.6-.6,1.6-1.4,3.1-1.8,4.8-.3,0-.8,0-1,.1-1.6.8-3.5,3.3-4.9,4.6-2.5,2.2-11.5,8.9-14.6,8.3l-.2-.5c.7-5.9,1.4-11.9,1.9-17.8Z"/> <path class="st27" d="M354.6,79.3c8.1-13.9,16.1-27.1,26.8-39.2,3.4-3.8,7.1-7.9,11.4-10.7.9-.6,1.9-1.3,3.1-1.1l-.3.4c-2.2,3.1-5.2,5.8-7.7,8.8-5.8,7-12.1,15.5-16.8,23.3-1.3,2.2-10.8,19.7-11.6,20.2-1.6-.8-3.2-1.1-4.9-1.6Z"/> <path class="st48" d="M287.4,327.6c5.5.4,11.1,3.3,17.3,3.1-.4,5.2-.9,10.3-1.1,15.5-5.5-.4-10.6-1.5-15.7-3.5-.6-2.7-.5-11.8-.5-15.1Z"/> <path class="st23" d="M287.9,342.7c0-.7,0-1.5.4-2.1,1.3-.2,11.1,2.4,13.5,2.8.9.9,1.6,1.4,1.8,2.8-5.5-.4-10.6-1.5-15.7-3.5Z"/> <path class="st27" d="M393.8,98.2c10.3-8.7,31.7-20.3,45.1-21.4-.1.9-.2,1.5-.8,2.2-6.5,0-36.5,20.7-42,26-.2.2-.3.3-.5.5-.9.4-1.7,1.2-2.5,1.8,0-3,.6-6,.6-9Z"/> <path class="st19" d="M391.2,61.2c2.1-4.4,3.4-12.9,3.6-17.7.2-3.8-.7-8.8.9-12.2.3-.7-.2-1.1.2-1.8v.4c.1,0,.1-.3.1-.3l1.1.9c.9,2.2.7,5.2.7,7.5-.3,16.3-5.5,35.7-11.4,50.8-3.1,7.8-4,11.8-10.1,17.9,0,0-.1-.2-.2-.3-.2-.6,0-1.1.3-1.7.5-1.6,1.3-3.2,1.9-4.7,2.5-6.9,4.7-14,7.1-21,2-6,4.2-11.8,5.9-17.9Z"/> <path class="st22" d="M269.2,118.6l1.4.6c-2.6,2.8-3.6,5.8-3.5,9.7,0,1,.2,1.6.7,2.5-8.9,4.4-14.4,10.8-18.8,19.6-6-2.2-12.5-3.4-18.9-3.2,1.4-.3,2.7-.8,4.1-1.2,12.3-2.8,26.8-18.8,35-27.9Z"/> <path class="st45" d="M175.1,435.8c2.7-4.2,6.3-7.1,11.3-8.1,3.7-.8,8.1-.4,11.4,1.7.7.5,1,1.2,1.2,2,.1.7.1,1.4-.4,2-1,1.1-2.8,1.1-4.2,1.1-3.9-.2-6-1-9.3,1.9-2.3,2-3.4,4.9-3.5,7.9,0,1.2,0,2.4.2,3.6.3,1.7,2,5.1.3,6.4-.2.1-.6.3-.8.4-.8,0-1.9,0-2.6-.3-.8-.3-3.3-6.6-3.8-7.9-1.4-3.4-1-7.2.2-10.6Z"/> <path class="st23" d="m183.1 305.4c1.1-4.7 2.8-9 7.1-11.7 4.5-2.8 9.9-1.2 14.9-1.4 1.1 4.5 2.6 8.9 3.8 13.4-5.5 0-10.9 0.1-16.4-0.3h-3.8c-1.9 0-3.7 0-5.6-0.1z"/> <path class="st32" d="m188.6 305.5c-0.3-1.7-0.5-2.7 0.5-4.2s2.8-2.7 4.6-2.9c1-0.2 2.2 0 2.9 0.6 0.5 0.5 0.6 1 0.6 1.6 0 1.4-1 2.8-2 3.6-0.9 0.8-1.7 1.1-2.8 1.2h-3.8z"/> <path class="st38" d="M262.4,163.1c13.2,7.3,20.1,15.5,24.3,30.1,2.6,9,2.9,19.8,1.5,29.1h-3.8c-.5-.8,0-10.8,0-12.7-.4-8.6-1.4-16.8-5.3-24.6-5.9-11.8-10.6-16.1-23.2-20.2-.1-.3-.4-.5-.6-.7,2.4-.8,4.8.5,7.2-.9Z"/> <path class="st43" d="M344.7,109.1c1.8,1.7,3.6,3,6.2,2.9,2.8-.1,5.2-1.9,7.9-2.2-.4,3-1.4,6.2-2.1,9.2-1.1,4.5-2.1,9-2.9,13.5-3.6-1.7-7.3-2.9-11.2-3.8-1.4-.3-3-.4-4.3-.9h.3c.7-.9,5.1-16.2,6-18.7Z"/> <path class="st43" d="M176.4,25.3c1,.8,1.4,1.4,1.6,2.7.2,1.6-.6,3.1-1.6,4.4-2.6,3.2-6.6,4.9-9.6,7.5-10.1,9-11.5,25.9-10.4,38.6.6,7.4,3.9,14.5,6.5,21.3l-2.3.4c-.9.2-1.9.2-2.8.6h-.8c-.9-1.6-2-10-2.4-12.2-.6-2.2-.9-4.5-1.2-6.7.6-.9.8-1.4,1-2.5-.9-9.3-.3-18.1,1.3-27.3.5-1.2.8-2.7,1.3-4,.9-2.6,2.1-5,3.4-7.4,2.7-6.8,10.4-8.9,15.5-13.3l.5-2.2Z"/> <path class="st46" d="M154.3,79.5c.3,2.3.6,4.6,1.1,6.8l-.3.3-.2-.7c-.3.5-.3.5-.2,1.1,0,.2.2.6.3.8,0,.3-.1.5-.3.7-.6-2.2-.9-4.5-1.2-6.7.6-.9.8-1.4,1-2.5Z"/> <path class="st18" d="M154.6,88.7c.2-.2.2-.5.3-.7,0-.2-.2-.6-.3-.8-.1-.6-.1-.7.2-1.1l.2.7.3-.3c.9,3,1.6,6.1,2.6,9.1.9,1.5,2.1,3.2,2.6,4.8-.9.2-1.9.2-2.8.6h-.8c-.9-1.6-2-10-2.4-12.2Z"/> <path class="st19" d="M157.9,95.5c.9,1.5,2.1,3.2,2.6,4.8-.9.2-1.9.2-2.8.6-.3-1.6.2-3.7.2-5.4Z"/> <path class="st18" d="M175.8,27.5c.1.9.3,1.5,0,2.3-2.5,2.1-5.8,3.4-8.3,5.5-1.9,1.6-4.9,4.9-7.1,5.5,2.7-6.8,10.4-8.9,15.5-13.3Z"/> <path class="st43" d="M363.7,246.7c5.2.3,13.9.2,18.6,1.5-6.1,7.8-6.1,6.7-15,9.6,1,2.1,2.1,4.1,3.1,6.2-2.6,6.2-8.1,7.8-9.3,10.1-1.5.1-3-.1-4.6-.3,2.5-9,4.9-18,7.2-27Z"/> <path class="st43" d="M325.9,244.2c8.1,1.1,16.8,1.2,25,1.6-1.1,5.2-2.3,10.4-3.7,15.6-.2.8-.5,1.6-.8,2.4-4.6-5.6-14.4-8.2-21.3-9.4,0-3.4.5-6.8.7-10.2Z"/> <path class="st48" d="M317.1,320.7l15.1.3c-2,7.1-3.4,14.4-5.4,21.6-4.2,1.1-8.4,2-12.8,2.5.7-2.9.9-6,1.3-9,.7-5.1,1.3-10.3,1.8-15.4Z"/> <path class="st43" d="M361.9,138.2c5.5-3.8,10.1-9.5,14.7-14.2,5.3-5.4,10.8-10.7,16.3-15.9h.3c0,0,.3.7.3.7,0,1,.3,1.7,1,2.4,1.5,1.6,3.6,1.3,5.5,1.9-2,2.7-4.7,5.1-7.1,7.4-2.7,2.7-5.4,5.4-8.2,7.9-2.9,2.5-6.3,4.7-8.5,8-2.3-.2-4.6-.3-6.9.3-1.5.4-4.8,2.3-6.1,2.2-.6,0-.9-.4-1.3-.8Z"/> <path class="st27" d="M306.6,139c-.5-.1-.6-.1-1-.5-.9-3.9,1.9-21.3,3.4-25.5,4.3-11.6,12-17.4,22.8-22.4,4.7-2.2,20.2-8.4,24.6-6.5,1.3.6,1.8,1.7,2.2,3-.1,1.3-.4,2.9-1.5,3.7-.5.4-1.3.3-1.9.2-2.9-.6-5.9-1.3-8.9-1.2-6.6.1-17.4,4.7-22.7,8.3-4.7,3.2-9.2,8.2-11.8,13.3,1.2,2.3-.6,4.4-.2,6.9-1.2,6.5-1.4,13.9.4,20.3-1.6,0-3.8-.1-5.2.3Z"/> <path class="st25" d="M311.7,111.4c1.2,2.3-.6,4.4-.2,6.9-1.2,6.5-1.4,13.9.4,20.3-1.6,0-3.8-.1-5.2.3.9-1.1,1.2-12.8,1.6-15.4.6-4,1.6-8.5,3.5-12.2Z"/> <path class="st43" d="M362.6,104.8c.2.3.1.3.4.3,2.5.3,6.3-2.1,7.9-3.9,3.6-3.9,5.6-9.1,8.1-13.8,2.7-5.1,5.6-10.1,7.7-15.5.8-2.1,2.9-10.4,4-11.1l.5.4c-1.7,6.1-3.9,11.9-5.9,17.9-2.3,7-4.6,14-7.1,21-.6,1.6-1.3,3.1-1.9,4.7-.2.6-.5,1.1-.3,1.7,0,.1.1.2.2.3-1.4,2.2-5.9,6.2-7.9,8.4-4.2,4.7-8.1,9.7-12,14.7,1.1-7.7,3.9-17.6,6.2-25.1Z"/> <path class="st40" d="M161.4,172.3c-3-6.2-5.7-12.4-8.7-18.6-3.7-7.4-8-15-10.5-22.9-1.7-5.4-1-11.2,1.6-16.2,3-5.6,7.1-8.2,13.1-10.1.2.6.5,1,.2,1.6-.9,1.6-3.1,2.7-4.3,4.1-4.5,5.3-5.9,13.4-4.9,20.2.4,2.9,1.8,5.7,2.8,8.4,3.2,8.4,7.2,16.5,10.2,24.9.6,1.6,1.7,4,1.7,5.7,0,1-.4,1.8-1,2.6,0,0,0,.1-.1.2Z"/> <path class="st40" d="M210.8,161c-.3-.8-.5-1-.3-1.8,1.7-1.4,3.7-2.1,5.7-2.9,6.5-2.5,13-4.2,20.1-3.7,9.3.7,17.9,6.2,26.1,10.4-2.4,1.3-4.8,0-7.2.9-2.7-.8-5.5-1.6-8.2-2.3-2.3.5-4.6.4-6.8,1.2,0,0-.2,0-.3,0v-1.3c0,0,0-.2,0-.2l-.6,1.1c0-.9.2-1.4-.4-2.2-.7-.3-1.3-.6-2.1-.7-1.7-.1-3.2.3-4.5,1.5-7.1,0-13.4,1.4-20.1,3.5-.4-1.3-.9-2.5-1.4-3.8Z"/> <path class="st21" d="M210.8,161c1.6-.4,3.1-.5,4.6-1,8.3-2.5,14.7-5.8,23.5-2.3,2.8,1.1,5.4,2.6,8.1,4-2.3.5-4.6.4-6.8,1.2,0,0-.2,0-.3,0v-1.3c0,0,0-.2,0-.2l-.6,1.1c0-.9.2-1.4-.4-2.2-.7-.3-1.3-.6-2.1-.7-1.7-.1-3.2.3-4.5,1.5-7.1,0-13.4,1.4-20.1,3.5-.4-1.3-.9-2.5-1.4-3.8Z"/> <path class="st14" d="m230.2 252.5c1.1 5.5 2.2 11 3.2 16.5-7.5-0.2-15-0.2-22.5-0.8l-3.6-13.5c3.4 0 6.8-0.1 10.2-0.6 3.1-0.4 9.9-2.2 12.6-1.7z"/> <path class="st39" d="M283.4,253.7c4.3-1.1,8.6-2.2,13-2.5,1,0,1.9,0,2.8.5.3.6.3.6.1,1.3l-.5.5c.2,1.1.6,1.9,1,2.9,1.9,2.8,3.7,5.7,5.9,8.3,1.6,1.7,3.3,3.4,5,5,.5.5.5.7.7,1.4-.4.5-.7.6-1.4.7-2.8.4-13.6,0-16.5-.4.8-.6,1.5-1.4,2.2-2.1,0,0-.2,0-.3,0-1.4.2-3.2-.1-4.3-1.1-1.2-1.1-1.3-2.2-1.4-3.8l-1,.4c-.7-.8-1-1.1-2.1-1.1-.7,0-1.4.1-1.9.6-.3.3-.2.5-.3.9-.7-3.7-.6-7.7-1-11.5Z"/> <path class="st31" d="M305.7,264.7c1.6,1.7,3.3,3.4,5,5-.3.3-.4.3-.8.5-1.8-.3-3.7-2.5-4.8-3.9l.6-1.6Z"/> <path class="st11" d="M305.1,266.3c-1.4-1.4-6.3-6.9-6.8-8.4.4.2.5.3.7.7,0,.2.2.3.3.5.7.9,1.6,1.7,2.8,1.9-.6-.9-1.2-1.9-1.8-2.8-.4-.6-.6-1-.4-1.7,1.9,2.8,3.7,5.7,5.9,8.3l-.6,1.6Z"/> <path class="st32" d="M289.6,264.5c.2-1.2.4-2.2,1.5-2.9.7-.5,1.6-.7,2.5-.5,1.2.3,2.3,1.2,3,2.3.7,1.2.9,2.4.5,3.7-.3.9-.7,1.5-1.4,2.1,0,0-.2,0-.3,0-1.4.2-3.2-.1-4.3-1.1-1.2-1.1-1.3-2.2-1.4-3.8Z"/> <path class="st22" d="M393.8,98.2c0,3-.6,6-.6,9,.8-.6,1.6-1.4,2.5-1.8v.4c0,0-.2.2-.3.3-.8.7-1.4,1.8-1.9,2.7l-.3-.7h-.3c-5.5,5.1-11,10.4-16.3,15.8-4.6,4.8-9.2,10.5-14.7,14.2-1.3-1.2-2.7-2.3-4-3.4,3.4-3.2,6.2-7.4,9.2-11.1,6.4-7.8,18-20.5,26.7-25.6Z"/> <path class="st36" d="M167.9,272.9c16.4,1.2,32.8,1.2,49.2,1.8,4.7.2,9.4.7,14.1.9l48.2,2c9.4.4,18.7.5,28.1,1,2.7.1,5.7,0,8.4.3-2.7.2-5.8,0-8.4.9h.5c0,0-1.1.4-1.1.4h.4c-2.3.4-4.5.3-6.7.6-5.4.3-11-.4-16.3-.6l-41.1-1.7-49.4-1.9c-8.4-.3-16.9-.5-25.2-1.2l-.5-2.6Z"/> <path class="st24" d="M233.3,318.5c3.9,0,7.7.5,11.6.5.7,6,2.2,11.8,3.2,17.7-1.7.2-5.1,3.3-6.5,4.4-3,2.2-6.2,3.3-9.5,5l-.3.5c-1.9-5.8-3.2-11.7-4.7-17.6,0,0,.2,0,.3.1.6.2,1.2-.2,1.7-.5,2.5-1.6,5.2-5.4,5.9-8.3.2-.7.1-1-.2-1.5-.5-.1-1-.3-1.5-.4Z"/> <path class="st37" d="M202.9,237.4c8.2,0,16.5.8,24.8,1.3.6,4.6,1.6,9.2,2.6,13.8-2.7-.5-9.5,1.3-12.6,1.7-3.4.4-6.8.6-10.2.6-1.6-5.8-3.2-11.5-4.5-17.3Z"/> <path class="st23" d="M256.5,306.3c-.1-6.2-.5-17.6,1.9-23.1.6-.4,1.1-.3,1.9-.3,2.4,0,4.9,0,7.3.3,1.9,0,3.9,0,5.8,0,.2,7.2.7,14.5,1.2,21.7.2.7.3.9,0,1.6-3,.4-15.3.3-18.1-.3Z"/> <path class="st12" d="M256.5,306.3c-.1-6.2-.5-17.6,1.9-23.1.6-.4,1.1-.3,1.9-.3-.1,4-.8,8-1,12-.2,3.7.2,7.5-.2,11.2-.9.2-1.7.2-2.5.3Z"/> <path class="st31" d="m267.5 283.2h5.8c0.2 7.2 0.7 14.5 1.2 21.7-0.2 0.1 0 0-0.5 0-2.6-1.9-5.4-4.8-7.3-7.4-3.8-5.3-3.9-8-2.9-14.3 1.2 0 2.4 0 3.7-0.1z"/> <path class="st42" d="M108.1,169.5c1.8-.1,3.5,0,5.2,0-.9.2-1.2,0-1.8.8-.1.7-.1.7.3,1.3.6.4.9.4,1.6.3,2.8,0,5.6,0,8.4.4,2.3.3,4.6.9,6.9,1.1,7.2.6,14.4.3,21.6.5,1.4,0,5.8.8,6.8.5.7,1.2,1,2.7,1.4,4-.7,1.4-1.3,2.8-2.1,4.1-3.4.6-6.9.3-10.4.5-5.6.2-11.4.8-17,.6-.9,0-1.8,0-2.6-.4-2-.9-3.7-2.6-5.6-3.8-3.7-2.5-7.6-3.9-11.8-5.2-.4-1.6-.8-3.1-1-4.7Z"/> <path class="st10" d="M180.1,311.1c0-.5,0-.8,0-1.2.5-.3,1-.5,1.6-.5,1.3,0,2.7.1,4,.1h14.6c0,.1,45.4.7,45.4.7,2.6.1,5.2.2,7.8.1,11.4.2,107.3,1.9,109.1,3,.1,0,.2.2.4.3,0,.3,0,.6-.2.9-5.8.9-12.1.2-17.9.2l-31.1-.7c-5.1-.2-10.2-.5-15.3-.6-31.5-.5-63-.6-94.4-1.9-5-.2-10.1-.3-15.1-.3-2.9,0-6.1.2-8.9-.2Z"/> <path class="st22" d="M420.8,126.8c.5.9.9,1.6.7,2.6-.6,3.4-9.9,9.8-10.4,11.7-.5,1.2-.4,2.1-.4,3.4,0,.7.1,1.5,0,2.2,3.7,2.8,6.7,7.2,7.3,12,.5,3.8-.8,7.6-3.1,10.5-1,1.3-2.4,2.3-3.7,3.3,2,4.1,2.9,8.8,1.4,13.3-1.4,4.2-6.8,8.5-6.8,8.7,0,1.4,1.5,3.1,1.7,4.7,1.2,7.6-3.3,13.8-9.9,17-1.3.6-2.7,1.1-4,1.5,1.2,3.3.5,6.4-.6,9.6-1.4,0-2.8,0-4.2-.1,1.3-3.3,1.3-7.8,1.3-11.3,4.7-2,9.1-2.7,11.9-7.5,2.9-4.9,1.5-10.7.2-15.8.4-.1.8-.3,1.2-.5,2.7-1.2,4.7-3.4,5.7-6.2,1.4-4,.9-10-1-13.8,2-1.3,4-2.7,5.3-4.8,1.8-2.9,2.2-7.1,1.4-10.4-.5-2.2-2.3-6.2-4.2-7.4-1.1.2-1.8,1.8-2.6,2.7-2,2.3-4.9,2.9-7.8,3.1h-.3s-.3-.2-.3-.2c-.6.1-1.1.2-1.7.3,0-.2,0-.3.2-.5.5-1.1,1.8-1.6,2.8-1.9.3-.1.3-.3.5-.6,7.2-4.8,2.3-11.7,5.2-14.6.5-1.1.7-2.4,1-3.6,0,.9-.3,2.3.3,3,.6,0,.7,0,1.1-.4l.4.2c1.8-.4,5.7-5.5,7.2-7,1.2-1.2,2.5-2.2,4-3Z"/> <path class="st32" d="M339.9,99.1h.6c.1,1.4-2.7,7.4-3.4,9.1-2.4,6.2-4.6,12.8-6.3,19.3-5.1-1.4-10.1-.4-15.3.4h-.8c-.5-.3-.6-.4-.7-1.1-.9-4.6,2.6-12.9,5.2-16.6,4.8-6.8,12.8-9.6,20.6-11Z"/> <path class="st40" d="M151,218.1c.6-3.5.7-7,1.5-10.5,1.3-5.6,7.4-18.6,10.4-24,5.9-10.6,13.8-16.8,25.5-20.1,3.1-.9,6.3-1.2,9.3-2.1h.2c.8,1,1.3,2.7,1.7,4-1.1.8-2.5.3-3.9.3-6.3,1.2-10.9,3.1-16.2,6.5-1.3.8-2.9,1.7-4,2.7-1.2,1.4-2.2,2.9-3.3,4.4-5.6,7.1-7.4,10.1-11.2,18.2-.6,1.3-1.5,2.6-2,3.9,2,2.1,3.5,8.7,4.7,11.7.7,1.6,1.6,3.2,2.3,4.8.2.4,0,.2.4.5-5.2,0-10.4-.2-15.5-.4Z"/> <path class="st11" d="M159.2,201.5c2,2.1,3.5,8.7,4.7,11.7.7,1.6,1.6,3.2,2.3,4.8.2.4,0,.2.4.5-5.2,0-10.4-.2-15.5-.4.6,0,1.2-.2,1.8-.3,1.9-2.4,2.7-6.8,3.7-9.7.8-2.2,1.7-4.4,2.7-6.6Z"/> <path class="st22" d="M176.8,134.1c5.8.4,12.6,5,16.7,8.9,1.1,1,2.3,3,3.5,3.7.2,0,.4,0,.6-.1l.3.8.5.2.3-.2c-.2-.6-.2-.6-.8-.9v-.6s.4-.2.4-.2c1.9,1.8,3.5,5.4,4.8,7.8,1.2,1.8,2.1,4.1,3,6,2.6,5.8,4.7,12.1,7.8,17.8,2.5-1.1,3.8-2.8,5.9-4.4,1.8-1.3,4.9-2.4,6.1-4.2.3-.5.3-.6.2-1.1-.5-.3-.8-.5-1.4-.5-3.2,0-7,3.1-9.2,5.2-.7-1.6-1.3-3.2-2.1-4.8,6.2-2.4,12.2-2.9,18.8-3.5-3.4,5.8-8.2,11.6-14.2,14.9-11.3,6.1-23.7,2.2-35.2-1.2,2.6-.9,4.9-2.4,7.3-3.6,3.7-1.8,7.5-2.6,11.5-3.3.3,1.7.7,3.3,1.2,4.9-.5-.2-1-.5-1.5-.7-4.8-2-9.2,0-13.7,1.9,0,0,.2,0,.3,0,.2,0,.3,0,.5,0,3.1.6,6.3.1,9.4.6,2.4.4,6,2.4,8.3,1.7.2-.2.3-.4.3-.8.2-2-.4-4.5-.8-6.5-2.1-11.1-7.8-22.7-17.2-29.4-1.3-.9-2.7-1.8-4.2-2.5-1.7-.8-6.6-2.2-7.5-3.6-.6-.8-.2-1.7,0-2.5Z"/> <path class="st41" d="M198.4,145.7c1.9,1.8,3.5,5.4,4.8,7.8-.2.4-.4.6-.8.9-1.9-2.4-3.5-5.2-5.4-7.6.2,0,.4,0,.6-.1l.3.8.5.2.3-.2c-.2-.6-.2-.6-.8-.9v-.6s.4-.2.4-.2Z"/> <path class="st23" d="M73.6,167.5c4.1,0,8.6.8,12.3,2.5,1.2.5,3.9,2,5.2,1.4.5-.2.7-.6.9-1,.8,1.6-.6,7.9-.7,10.1-2.1.3-4,.7-6,1.4-3.4,2.9-9.4,5.7-13.9,5.7-4.6,0-8-2.4-11.1-5.5-.9-.9-2.2-2.1-2.2-3.4,0,0,0,0,0,0,.4,0,.5,0,.7-.5,1.3-2.8.6-4.8,3.4-7.5,3-2.9,7.5-3.3,11.4-3.2Z"/> <path class="st32" d="M69.2,169.2c1.2.2,2.6.4,3.3,1.4.4.5.4,1.1.3,1.7-.4,1.3-1.6,2.2-2.7,2.7-2.3,1-3.1-.3-5,.2.9-1.4.6-3.1,1.4-4.4.7-1.1,1.7-1.3,2.8-1.7Z"/> <path class="st48" d="M58,178.7s0,0,0,0c.4,0,.5,0,.7-.5,1.3-2.8.6-4.8,3.4-7.5,3-2.9,7.5-3.3,11.4-3.2-1.8.3-3,.5-4.4,1.7-1.2.4-2.1.6-2.8,1.7-.8,1.3-.5,3-1.4,4.4,1.2,2.4,4.1,4.6,6.7,5.4,4.4,1.3,9.2.2,13.6,1.2-3.4,2.9-9.4,5.7-13.9,5.7-4.6,0-8-2.4-11.1-5.5-.9-.9-2.2-2.1-2.2-3.4Z"/> <path class="st15" d="M223.9,232.7c23.2.9,46.3,2,69.5,3.2,7.1.4,14.3,1.1,21.4,1.5,14.5.8,29,1.5,43.6,2,8.3.4,16.6.7,24.9,1.3,5,.4,10.5,1.5,15.5,1.1.9,0,1.8-.2,2.4-.9,1.6-1.5,1.9-3.9,2.6-5.9.5.7.9,1.5,1.3,2.2,0,2.7-.7,4.7-2.1,7-2.1.8-4,1-6.2.9-11.2-.4-22.5-1.6-33.8-2.2l-87.5-5.4-42.9-2.6c-3.5-.2-6.9-.4-10.4-.6-2.4-.1-4.9,0-7.3-.4,1.4-.2,2.8-.1,4.2-.1l-1.7-.8c2.1.4,4.4.1,6.4-.1Z"/> <path class="st10" d="M167.9,272.9c-.1-.6-.4-.9,0-1.5,3.9-.4,8.1.1,12,.2l23.6.8,52.5,1.5c6.6.2,13.3.3,19.9.8.5-.3.5-.3.8-.9,1.5,0,3,0,4.5-.3,0,.4,0,.8.3,1,.3.2.7.3,1,.4l70.2,2.9c3.9.2,20.5.4,22.8,1.2-.1.6-.4,1.1-.7,1.6-5.2.2-10.6-.2-15.9-.4-8-.3-16.1-.3-24.1-.7-6.3-.2-12.6-.8-19-.7-2.7-.4-5.6-.2-8.4-.3-9.4-.5-18.7-.5-28.1-1l-48.2-2c-4.7-.2-9.4-.7-14.1-.9-16.4-.6-32.8-.6-49.2-1.8Z"/> <path class="st26" d="M281.1,273.5c0,.4,0,.8.3,1,.3.2.7.3,1,.4-2.2,0-4.5,0-6.7-.3.5-.3.5-.3.8-.9,1.5,0,3,0,4.5-.3Z"/> <path class="st31" d="M285.2,283.7c7.9.8,15.9.7,23.9,1-.5,6.8-1.2,13.7-1.8,20.5,0,.8,0,1.5-.3,2.2-2.4.2-4.9,0-7.3,0-4.5-.1-8.9-.3-13.4-.4-.5-7.7-.8-15.5-1.1-23.3Z"/> <path class="st33" d="M180.1,311.1c2.8.4,6,.2,8.9.2,5,0,10.1,0,15.1.3,31.4,1.3,63,1.4,94.4,1.9,5.1,0,10.2.4,15.3.6l31.1.7c5.8,0,12.2.8,17.9-.2-.4,1.2-.7,2.4-1.1,3.6-15.6-.9-31.4-.8-47.1-1.1l-94.9-2.4c-8.3-.2-16.6-.4-25-.5-4.5,0-9.2,0-13.7-.5-.3-.9-.5-1.8-1-2.7Z"/> <path class="st14" d="M164,103.6c.8,0,1.2,0,2,.2,2.8.7,5.7,0,8.6.3l.4-.2c7.2,1.8,13.7,6.3,17.5,12.7,2.4,3.9,4,8.3,5.9,12.4,2.9,6.1,6.2,12.1,8.5,18.5l-.3.4c.3.7,1.6,3,1.5,3.6l-.5.2c-1-.9-1.2-2.4-2.3-3.4l-.2.3c-1.3-1.4-2.3-3.7-3.4-5.3-2.3-3.5-4.8-6.6-7.7-9.6-4.7-3.5-8.7-7.2-14.8-7.4-1.5.2-2.7.7-4,1.5-1.9-7.7-6-15.3-11.1-21.4,0-.7,0-.7.5-1.3l-.6-1.3Z"/> <path class="st11" d="M164.6,104.9c.6,0,1.1.2,1.7.3,2,.6,3.3-.2,5.3,0,.3-.2.7-.4,1-.6.9.2,1.2.7,1.9,1.3-2-.2-4.3-.7-6.3,0l-.3.4c.4,2,3.4,5.2,4.9,6.6,1.3,2,6.9,11.3,7,12.9l-.4.3c-1.5.2-2.7.7-4,1.5-1.9-7.7-6-15.3-11.1-21.4,0-.7,0-.7.5-1.3Z"/> <path class="st14" d="M241.2,239.5c3.4.4,7,.5,10.4.6l18.8,1,.3,11.7c-3.1,2.8-5.6,5.5-7.9,9-.8,1.1-1.6,2.3-2.6,3.3-4,3.7-8.8,4.7-14.1,4.6-1.5-10.1-3.1-20.2-4.9-30.3Z"/> <path class="st42" d="M182.6,317.8c4.7-.3,10-.5,14.7.1,5.2,0,10.4.1,15.5.6.6,3,1.5,6,2.3,9,.9,2.1,1.4,4.5,2,6.7,1.2,4.3,2.4,8.7,3.8,12.9-8.2.2-15.6-1.5-22.6-5.5-.9-.5-2-.9-2.8-1.5-1.8-1.3-3.2-3.3-4.9-4.7-.5-.5-.8-.6-1.5-.6-.3.7-.2,1.1,0,1.9-2.9-4.8-4.6-13.4-6.4-18.9Z"/> <path class="st23" d="m197.3 318c5.2 0 10.4 0.1 15.5 0.6 0.6 3 1.5 6 2.3 9-1.6 0.7-4.6 0.4-6.3 0.4-8.8-0.3-15.3-3.6-21.2-9.9h9.8z"/> <path class="st34" d="M395.7,105.4c.2-.2.3-.3.5-.5,5.5-5.3,35.5-26.1,42-26,.1,1.3.3,2.5-.2,3.7-2.1,2.3-3.4,6.1-4.8,8.9-1.3,2.7-2.7,5.3-4.3,7.8-2.5,3.9-5.4,7.6-8.3,11.2-2,2.5-4.3,5-5.8,7.8-1-1.3-1.3-2.8-2.5-4.1-1.2-1.2-2.5-1.7-4.2-1.7-1.4,0-2.8.3-3.8,1.4-2.4,2.6-1.2,12.9-1.2,16.7-6.8-2.1-7.5-2.9-14.9-2.4,9.4-9,18.2-18.6,27.3-27.9,4.3-4.4,12.1-11.3,15.1-16.2-5,2.6-10.3,9.2-14.4,13.2l-16.1,15.6c-1.9-.6-4-.3-5.5-1.9-.7-.7-.9-1.5-1-2.4.5-.9,1.1-2,1.9-2.7.1,0,.2-.2.3-.3v-.4Z"/> <path class="st10" d="M124.2,205.3l1.1-.6c3.6,4.1,6.9,8.1,9,13.2,2.2,5.4,3.8,11,5.6,16.5l11.1,34.1,20.6,64.9c2.9,9.2,6.1,18.2,8.8,27.4.5,1.6,1.5,4.4,1.3,6.1-.5,3.8-19,21.9-22.5,26.9-2,2.9-3.1,11.1-4.2,12.1-.7.9-1.4,2.1-2.2,2.8-.3-1.1-.4-2.3-.4-3.5-.2-3.4.4-6.9,1.9-10,2.2-4.6,6.3-8.4,9.7-12.1,5.2-5.7,10.5-11.2,15.6-16.8-3.6-6.6-5.5-14.3-7.8-21.5l-8.3-25.8-27.1-82.8c-3.2-9.4-6.3-23.4-12.3-31Z"/> <path class="st10" d="M390,251.3c1.1-.1,3.8-.3,4.8.3.2.1.3.3.4.5-4.6,11.1-8.4,22.6-12.5,33.9-2.7,7.4-5.8,18.1-10.6,24.3-2.2,5.7-4.1,11.5-6.3,17.3-2.5,6.5-5.8,13.6-6.8,20.5-5.4,0-10.7.7-16.1,1.1l-29.4,2c-22.4,1.4-44.8,3.3-67.3,5-9.2.7-18.5,1.3-27.7,2.3-4.1.5-8.3.9-12.3,1.9-3.6.4-7.1.7-10.7.8-.8-1-1.6-1.7-1.7-3,6.9-1.4,16.4-1.6,23.5-2.1l35.4-2.7c25.3-2,50.6-3.7,76-5.2,8.2-.5,16.5-1.4,24.7-1.8.9,0,1.8,0,2.6.3.6.2.3.3.8,0,.3-1.9.5-3.8.9-5.6.6-2.7,1.7-5.3,2.6-7.9,2-6,4-11.9,6.1-17.8l12.2-34.2,6.9-19.9c1.1-3.1,1.9-6.5,3.2-9.5l.2-.5.6-.2Z"/> <path class="st47" d="M390,251.3c1.1-.1,3.8-.3,4.8.3.2.1.3.3.4.5-4.6,11.1-8.4,22.6-12.5,33.9-2.7,7.4-5.8,18.1-10.6,24.3.8-5.5,3.5-11.1,5.4-16.3,2.9-8,5.5-16.1,8.4-24,2.3-6.2,5-12.3,6.8-18.6-.9,0-1.8,0-2.7-.2Z"/> <path class="st11" d="M156.4,235.5c4,0,8,.3,12.1.5,7.1.3,14.2.6,21.3,1,1.4,5.9,2.9,11.7,4.5,17.5,1.3,4.5,2.6,9,3.7,13.5-6.2-.2-12.7,0-18.8-.8-1.1,0-2.2,0-3.2-.6-2.4-1.2-4.4-3.3-6.3-5.2-8.4-8.7-9.9-15-13.2-26Z"/> <path class="st14" d="M161.3,243.8c7.7,4.8,13.3,8.2,22.5,10,2,.4,8.9,1.8,10.4.8,1.3,4.5,2.6,9,3.7,13.5-6.2-.2-12.7,0-18.8-.8.9,0,1.8,0,2.7-.2-.8-1.1-6.9-5.4-8.7-7.2-3.2-3.2-5.5-7.2-8-11-1.2-1.8-2.6-3.4-3.8-5.1Z"/> <path class="st15" d="M362.9,403l.4-.5c.6,0,.9.1,1.3.5,1.4,1.3,2.2,3.4,2.2,5.3,0,2.4-1.2,4.9-2.9,6.6-2.8,2.7-7.1,3.5-10.8,3.9-4.9.5-9.8.4-14.7.4h-21c0,0-58.6.4-58.6.4-22.1,0-44.1.9-66.2.9-7.4,0-14.8.4-22.2,0-5.4-.3-11.1-1.8-14.8-5.9-1.4-1.5-2.5-3.7-2.7-5.7.9-.7,1.5-1.9,2.2-2.8,2.8,4.5,3.7,5.8,8.8,7.8,6.1,2.5,13,2.3,19.5,2.5,9,.3,18.1-.2,27.1-.3l55.7-.9c16.6-.2,33.1-.2,49.7-.2,8.9,0,17.9.2,26.8-.2,4.7-.2,10.3-.2,14.7-2,2.5-1.1,4.4-3.3,5.3-5.9.4-1.1.7-2.8.2-3.9Z"/> <path class="st14" d="m255.9 164.7c12.6 4.2 17.2 8.4 23.2 20.2 3.9 7.8 4.9 16 5.3 24.6 0 1.9-0.4 11.9 0 12.7-8.1-0.7-16.4-0.8-24.5-1.1-3.5-0.1-7.5 0-10.9-0.5v-0.4c0-0.8 2.2-2.5 2.9-3.1 3.9-3.6 7.7-8.3 10.1-13.1 5-10.2 3.4-21.5-1.6-31.3-1.1-2.1-3.8-5.7-4.4-7.6v-0.3z"/> <path class="st45" d="M243.6,368.6c1.3-.2,2.6-.3,3.9-.5-3.1,6.9-7.6,14.3-9.3,21.7,3,3,7.7,7.8,11.5,9.4,4.2-.3,8.7,0,12.9.2,8.4.2,16.7.4,25.1.5l47.8,1c7.8.2,15.7.1,23.6.6-3.7,1.3-7.3,2.6-11.3,3-10.9,1.1-21.8.8-32.7.8-8.8,0-17.5.2-26.3.3l-30,.3c-4.9,0-9.9.3-14.8,0-2.4-.1-4.7-.5-6.9-1.4-4.3-1.7-8.2-4.5-10-8.9-4-9.6,3.3-17.2,6.6-25.6v-.3c3.3-.6,6.6-.7,9.8-.9Z"/> <path class="st15" d="M243.6,368.6c1.3-.2,2.6-.3,3.9-.5-3.1,6.9-7.6,14.3-9.3,21.7,3,3,7.7,7.8,11.5,9.4-.2.3-.2.3-.5.4-3.1,1-8.4,0-11.2-1.6-2.5-1.4-3.6-3.1-4.4-5.8,1.4-5.8,4.9-11.5,7.3-16.9,1-2.2,1.8-4.5,2.6-6.7Z"/> <path class="st46" d="M230.8,111.4c4.5-.8,8.7,2.7,12.7,4.2,4.4,1.7,9.6,2.4,14.3,1.8,4.1-.6,7.9-2.4,11.9-3.8.7,0,1.5,0,2.2,0,0,.5-.3.9-.5,1.3h-.7c-.4,1.3-.8,2.6-1.5,3.8-8.2,9.1-22.7,25-35,27.9-3.6,0-8.1.6-11.2-1.5-1.7-1.2-2.7-3.3-3.1-5.4-1.8-4.1-.6-8.5-1.9-12.7.7-2.9,1.5-5.8,3-8.4,2.3-3.8,5.6-6.1,9.8-7.2Z"/> <path class="st41" d="M226.7,125.4c.9.2,1.5.4,2,1.2-.3.8-.5.9-1.2,1.4h-1.2c-.5-.2-.5-.1-.7-.7.2-.8.5-1.2,1-1.9Z"/> <path class="st32" d="M232.2,116.6c1.2,0,2.3,0,3.4.6.8.4,1.4,1.1,1.6,2,.2.8,0,1.6-.4,2.4-.9,1.5-2.4,1.9-4,2.4-1.3.2-2.5.4-3.7-.2-.7-.4-1.4-1.1-1.6-1.9-.3-1.1,0-2.1.6-3.1,1-1.5,2.5-1.9,4.1-2.2Z"/> <path class="st20" d="M230.8,111.4v.5c-2.8,3-6.4,6.4-8.2,10.2-1.7,3.6-2.1,8.8-2.2,12.8,0,1.1.2,3.1,0,4.1,0,.2-.3.4-.5.6-1.8-4.1-.6-8.5-1.9-12.7.7-2.9,1.5-5.8,3-8.4,2.3-3.8,5.6-6.1,9.8-7.2Z"/> <path class="st22" d="M395.8,28.3c.4.7,1,1.5,1.3,2.3l-1.1-.9v.3s-.1-.4-.1-.4c-.4.7.1,1.1-.2,1.8-1.6,3.4-.7,8.4-.9,12.2-.3,4.8-1.6,13.2-3.6,17.7l-.5-.4c-1.1.7-3.2,9.1-4,11.1-2.1,5.4-5,10.4-7.7,15.5-2.4,4.6-4.5,9.9-8.1,13.8-1.6,1.7-5.5,4.2-7.9,3.9-.3,0-.2,0-.4-.3,3.9-13.2,8.2-26.5,13.6-39.2,1.2-2.8,2.5-5.6,3.9-8.4,1.2-2.2,2.5-4.5,3.5-6.8v-.2c.1-.8.3-1.4.6-2.1v-.3c.1,0-1.1.9-1.1.9-1.7,2.2-3,5-4.3,7.4-7.2,14-12.2,29.4-16.9,44.4-1,3.1-2.2,6.1-3.1,9.2-2.7.3-5,2.1-7.9,2.2-2.6.1-4.4-1.2-6.2-2.9,1.2-3.4,2.8-6.5,3.8-9.9,2.2-.1,4.6.9,6.8.8,2.1,0,4.1-.9,5.5-2.5,2.1-2.4,2.2-6,2-9.1-.2-3.2-.9-5.3-3.3-7.5.8-.5,10.3-18,11.6-20.2,4.7-7.8,11-16.3,16.8-23.3,2.4-3,5.4-5.7,7.7-8.8l.3-.4Z"/> <path class="st16" d="M387.9,40.8c1.2-1.9,3-3.5,4.6-5-1.2,1.9-2.3,3.9-3.6,5.7l-1-.8Z"/> <path class="st29" d="M387.9,40.8l1,.8c-1.9,2.8-3.4,5.9-5.3,8.7,0-.8.2-1.4.5-2.1v-.3c.1,0-1.1.9-1.1.9,1.1-2.7,3.2-5.5,4.8-8Z"/> <path class="st44" d="M331.7,424.2c5.8,0,10.5,2.2,14.6,6.4,3.4,3.5,5.3,8.7,5.2,13.6-.1,4.8-1.9,9.3-4.5,13.3-2.8,3.4-6.9,5.6-11.1,6.8-5,1.4-10.3.7-14.8-1.8-4.2-2.4-7.6-6.7-8.9-11.3-.9-2-.4-6.7.3-8.7.5-3.6,2.3-7.5,4.5-10.4,3.6-4.6,9-7.1,14.8-7.8Z"/> <path class="st10" d="M328.2,450.7c.3-.2.3-.3.7-.5,1.2-.5,3.5-.5,4.8-.8.9-.2,2-.7,2.9-.8.3,0,.4,0,.7.1-1,1.5-2.2,2.5-4,2.8-1.7.3-3.5-.2-5-.9Z"/> <path class="st49" d="m322.3 429.3 1.8-1.2c2.9-1.5 6.7-1.3 9.8-0.2-2.5 1.3-8.8 2-11.6 1.4z"/> <path class="st47" d="M330.8,438.3c2.3,0,4,.4,5.6,2.1,1.3,1.3,2.1,3.3,1.9,5.2,0,1-.4,2.5-1.1,3.3-.2,0-.4-.2-.7-.1-.9,0-2,.6-2.9.8-1.3.3-3.6.3-4.8.8-.4.2-.4.2-.7.5,0,0-.1,0-.2-.1-1.7-1.1-2.5-3.4-2.8-5.3.1-1.3.3-2.6.9-3.7,1-1.9,2.8-2.7,4.7-3.3Z"/> <path class="st10" d="M330.8,438.3l.6.4c0,1.3-4.3,5.2-5.4,6.1-.3.2-.5.4-.8.5.1-1.3.3-2.6.9-3.7,1-1.9,2.8-2.7,4.7-3.3Z"/> <path class="st45" d="M333.9,427.9c2.5,1,3.7,1.9,5.1,4.3-.6,2-.8,3.6-.8,5.7-2.6-2.1-5.2-4-8.7-3.6-2.6.3-4.9,2-6.4,4.1-2,2.7-2.8,6.2-2.2,9.5.8,4.6,5.3,6.6,5,8.6-.5.7-1,.9-1.8,1-2.6.4-5.7-.4-7.7-2-.5-.4-1-.9-1.4-1.4-1.2-.8-1.5-2.4-2.8-3-.9-2-.4-6.7.3-8.7l.4-.3h.3c0-.3.2-.7.4-1.2.2-.8.5-1.5.8-2.2,1.7-4.2,3.8-7.5,8.1-9.4,2.8.6,9.1,0,11.6-1.4Z"/> <path class="st26" d="M312.4,442.4l.4-.3h.3c0-.3.2-.7.4-1.2-.1,4.4.6,5.3,1,9.1h-.4c-.3.7-.4,1.3,0,2.1.1.3.3.6.4.9.2.4.4.7.5,1.1-1.2-.8-1.5-2.4-2.8-3-.9-2-.4-6.7.3-8.7Z"/> <path class="st42" d="M332.4,141.3c6.6-1.7,12-4,18.4-.3,2.1,1.2,4.2,2.8,6.1,4.3-.7,1.9-1.2,4-2,5.8-2.4,1.4-4.9,2.4-7.3,3.7-7.1,3.8-9,9.7-11.3,17-7.4,3-12.3,5.2-15.5,13-1.5,3.5-1.8,7.2-2.2,10.9-5.3,2.8-10.8,5.9-13.2,11.8-1-.2-1.9-.7-3-.8-2.7-.3-5.8,0-8.4-.8l-.4-1c0-.8-.2-1.5-.3-2.3-1.6-12.2-5.6-24.6-14.5-33.5-2.8-2.8-6-5.1-9.1-7.4.5.2,1,.3,1.6.3,1.9-.1,3.6.1,5.5-.2,0,0,.1,0,.2.1,2.6,1.4,4.6,3.3,6.8,5.2,5.6,4.8,11.7,11.1,18.5,14,2.9,1.3,6.2,1.3,9.2,0,1.9-.8,3.5-2.2,5-3.7,4-4.1,7.3-9.3,10.6-13.9,4.3-5.9,9.6-12.2,12.5-18.9-2.3-2.1-4.1-2.8-7.2-3.3Z"/> <path class="st21" d="M156.9,104.6c1.9-.4,3.7-.8,5.6-1.1l1.5.2.6,1.3c-.4.6-.5.6-.5,1.3,5.1,6.1,9.2,13.7,11.1,21.4-1.8,2.2-3.7,5.7-3.3,8.7.2,1.7,1.1,2.9,2.4,3.9,2.2,1.7,4.9,2.4,7.4,3.5-.7,2,1.9,13,2,16.6-8.9,2.9-15.9,7.6-20.8,15.6-.5-1.2-1-2.4-1.5-3.6,0,0,0-.1.1-.2.6-.8,1-1.6,1-2.6,0-1.7-1.1-4.1-1.7-5.7-3-8.5-7-16.5-10.2-24.9-1-2.7-2.4-5.5-2.8-8.4-1-6.7.4-14.9,4.9-20.2,1.2-1.4,3.4-2.5,4.3-4.1.3-.6,0-1-.2-1.6Z"/> <path class="st40" d="M154.8,133.3c.3,0,.6,0,.9.2.9.3,2,1.5,2.4,2.4.3.7.2.9,0,1.7-.5.2-1.4.4-2,.4-.6,0-1-.3-1.4-.8-.6-.9-.1-2.9.1-3.8Z"/> <path class="st40" d="M161.9,147.6c.4.1.8.2,1.2.5,1.5.9,3.9,4,4.2,5.6,0,.5-.2.6-.4,1-.6.3-1.1.6-1.8.4-1.3-.8-2.3-2.3-2.8-3.7-.5-1.4-.9-2.3-.3-3.7Z"/> <path class="st32" d="M157.2,117.5c.5,0,1.1.1,1.6.3,1,.5,1.9,1.7,2.3,2.8.8,2.1.8,4.8-.2,6.9-1,2-2.3,3-4.4,3.7-.5,0-1-.2-1.4-.4-1.3-.5-2.5-1.9-3.1-3.2-.7-1.7-.7-4,0-5.8,1-2.4,2.9-3.4,5.2-4.4Z"/> <path class="st32" d="m228.1 369.6h0.6c0 1-0.9 2.3-1.3 3.2-3.5 6.8-7.3 13.1-5.4 21 1.3 5.5 4.8 9.4 9.5 12.3l-51.8 0.8c-4.6 0-6.9-1.4-10.7-3.7 2.5-3.1 5.3-6 7.9-9 4.1-4.7 8.2-9.3 12.4-13.8 2.5-2.7 5-6.3 7.9-8.4 10.2-1 20.5-1.7 30.8-2.5z"/> <path class="st23" d="M314.5,133.3c.1-.3.1-.6.5-.8,1.2-.6,3.3-.6,4.6-.7,8.9-.7,19.7,0,28.1,3.1,4.4,1.7,8.1,4.4,11.7,7.3-.9,1-1.8,1.9-2.5,3-2-1.5-4-3.1-6.1-4.3-6.4-3.7-11.9-1.4-18.4.3,3,.5,4.9,1.1,7.2,3.3-2.9,6.7-8.2,13-12.5,18.9-3.4,4.7-6.7,9.8-10.6,13.9-1.4,1.5-3.1,2.9-5,3.7-2.9,1.2-6.3,1.2-9.2,0-6.8-2.9-12.9-9.2-18.5-14-2.2-1.9-4.3-3.8-6.8-5.2,0,0-.1,0-.2-.1-1.9.3-3.7,0-5.5.2-.6,0-1-.1-1.6-.3-5.6-2.8-10.7-6.3-16.5-8.6,1.3-2.5,2.7-5,4.4-7.2,6.8-8.8,16.1-12.4,26.8-13.8l-1,.8v.3s.2,0,.2,0l-.2.3c-1.1,1.7-2.1,3.7-1.7,5.8,2.1,2.9,14.8,7.1,18.6,7.7,8.8,1.4,14.3-.5,22.3-3.4,2.1-.8,4.4-1.7,6.6-2.1,1.4-1.4,4.2-2.4,5-4.3.1-.4.2-.8,0-1.1-.5-1.2-2.4-2-3.6-2.4-1.3-.4-1.8-.2-3,.3-3.7-1.3-10.7,1.2-13.2-.6Z"/> <path class="st11" d="M276.8,155.2c.9.3,2,.8,2.5,1.7.3.7.4,1.2.2,1.9-.3,1.1-1.2,1.6-2.2,2-1.1-.4-2.2-.8-2.8-1.9-.3-.6-.3-1.2,0-1.8.4-1.1,1.4-1.5,2.4-2Z"/> <path class="st11" d="M270.7,146c.7,0,1.7-.2,2.4,0,.6.2,1.2,1,1.5,1.6.4.9.2,2-.2,2.8-.6,1.1-1.3,1.5-2.5,1.9-.6,0-1.2,0-1.8,0-.8-.1-1.4-.5-1.8-1.2-.4-.6-.4-1.4-.2-2.1.4-1.5,1.3-2.3,2.6-3.1Z"/> <path class="st32" d="M282.8,146.6c1.9-.2,3.6-.2,5.4.3,2,.6,4,2,4.9,3.9.4.9.5,1.7,0,2.6-.7,1.6-2.7,2.3-4.2,2.8-1.2,0-2.4.1-3.5,0-3.1-.5-5.3-2.3-7.1-4.7.3-.8.5-1.8.9-2.5.8-1.4,2.1-1.9,3.6-2.3Z"/> <path class="st15" d="M190,365.9c-3.6-14.9-8.5-28.6-13.6-43-1.7-4.7-3.1-9.5-4.6-14.2-1.4-4-2.9-8-4.2-12-3.1-9.3-5.9-18.7-8.9-28-2.3-7-4.6-14-6.6-21-1-3.6-2.2-7.2-2.7-10.9-.2-1.6-.4-3.2.4-4.7.3-.6.7-.9,1.3-1.1,1,3,1.7,6.2,2.6,9.2l8.1,26.9c6.6,21.1,13.8,41.9,20.6,62.9,1.5,4.7,7.1,24.1,9.2,27.3.2.3.5.6.9.7.5.2,1.1.2,1.6.3,0,1.3.8,2,1.7,3,3.6-.1,7.2-.4,10.7-.8,4-1.1,8.2-1.5,12.3-1.9,9.2-1.1,18.4-1.6,27.7-2.3,22.4-1.7,44.8-3.6,67.3-5l29.4-2c5.3-.4,10.7-1.2,16.1-1.1.9-6.9,4.3-14,6.8-20.5,2.2-5.7,4.1-11.5,6.3-17.3,4.8-6.3,7.9-16.9,10.6-24.3,4.1-11.3,7.9-22.8,12.5-33.9.6-.8.9-2.2,1.3-3.2,1.2.5,1.3,1.7,2.4,2.2.8-.5,1.4-1.6,2.3-1.7h.2c-1.6,5.2-3.5,10.2-5.3,15.3l-12.5,35.6-12.6,35.7c-2.3,6.4-4.3,12.9-6.9,19.2l-106.6,7.9-40.5,3.2c-6.9.5-14.7.6-21.4,1.7-.1,0-.2,0-.3,0-.9.2-1.6.9-2.3,1.6-3.7,3.6-7,7.7-10.4,11.5-4.2,4.6-8.3,9.3-12.4,14-2.1,2.4-4.3,4.6-6.3,7-.5-.1-.8-.2-1.2-.5,0-1.2,2.6-3.4,3.4-4.6,1.6-2.6,1.5-5.8,3-8.2,1.5-2.4,3.7-4.4,5.6-6.5,5-5.5,10.3-10.8,15.3-16.4Z"/> <path class="st47" d="M206.4,360.5c4-1.1,8.2-1.5,12.3-1.9,9.2-1.1,18.4-1.6,27.7-2.3,22.4-1.7,44.8-3.6,67.3-5l29.4-2c5.3-.4,10.7-1.2,16.1-1.1-.1.9-.3,1.8-.4,2.8-6.9,1-14.1,1.1-21,1.7-22.9,1.7-45.8,3.3-68.7,4.6-10.4.6-20.8,1.3-31.2,2.1-8.4.6-17,1.7-25.4,1.6-2,0-3.9-.3-5.9-.4Z"/> <path class="st21" d="M232.3,161.2c1.2-1.2,2.7-1.6,4.5-1.5.7,0,1.4.4,2.1.7.6.8.4,1.3.4,2.2l.6-1.1.2.2v1.3s.1,0,.2,0c2.2-.8,4.6-.7,6.8-1.2,2.8.7,5.5,1.4,8.2,2.3.2.2.5.5.6.7,0,.1,0,.2,0,.3.6,1.9,3.3,5.5,4.4,7.6,5,9.8,6.7,21.1,1.6,31.3-2.4,4.8-6.2,9.5-10.1,13.1-.7.6-2.9,2.3-2.9,3.1,0,.1,0,.3,0,.4-3.3,0-6.7,0-10-.3-9,0-18-.4-27-.7l-45.4-1.1c-.4-.3-.3-.1-.4-.5-.7-1.6-1.6-3.1-2.3-4.8-1.2-2.9-2.7-9.6-4.7-11.7.4-1.3,1.4-2.6,2-3.9,3.8-8.1,5.6-11.1,11.2-18.2,1.1-1.4,2.1-3,3.3-4.4,1.1-1.1,2.7-1.9,4-2.7,5.3-3.5,9.9-5.3,16.2-6.5,1.3,0,2.8.5,3.9-.3.3.9.6,1.7,1,2.6-7.1,1.3-12.9,3.5-19.1,7.3-1.1.7-2.7,1.5-3.5,2.5,0,0,.2.2.3.3,5.4,5.2,19.2,8.1,26.6,7.8,11.2-.4,16.8-4.1,24.2-11.9,2.8-3.7,5.5-7.3,7.5-11.6-1.4-.6-2.8-1-4.3-1.2Z"/> <path class="st40" d="M172.5,202.3c1.4.2,2.9.8,3.9,2,.5.6.8,1.4.7,2.3-.2,1.1-1,1.7-1.8,2.5-1.7-.2-3.2-.5-4.8-1.2-.1-1-.5-2.6-.2-3.6.4-1.1,1.1-1.4,2.1-1.9Z"/> <path class="st40" d="M170.4,191.5c.6,0,1.2,0,1.7.2.9.2,1.7.6,2.1,1.4.5.9.4,1.9.1,2.8-.7,2.3-2.1,3.7-4.1,4.9-.5.2-.9.2-1.4.3-.8-.3-1.4-.5-1.8-1.3-.7-1.4-.5-3.3,0-4.8.7-1.8,1.6-2.7,3.3-3.5Z"/> <path class="st32" d="m180.5 190.3h1.1c2.1 0 4.6 1 6 2.6 1.5 1.7 1.4 3.1 1.3 5.2-1.3 1.7-2 2.4-4 3.1-0.9 0-1.8-0.1-2.6-0.4-2.1-0.6-4.5-1.8-5.5-3.8-0.5-1-0.8-2.2-0.4-3.3 0.7-1.9 2.4-2.6 4.1-3.3z"/> <path class="st40" d="M232.3,161.2c1.2-1.2,2.7-1.6,4.5-1.5.7,0,1.4.4,2.1.7.6.8.4,1.3.4,2.2-2,3.6-3.3,6.7-4,10.8-1.1.8-2,1.7-2.9,2.7l-.6.7c-5.6,7.6-14.8,11.9-24,13.2-11.6,1.7-21.5-1.4-30.8-8.4-.6-.4-1-.9-1.1-1.7,0-.3,0-.5,0-.8,0-.8,0-1.4.7-2,.6.2.9.4,1.4.8,0,0,.2.2.3.3,5.4,5.2,19.2,8.1,26.6,7.8,11.2-.4,16.8-4.1,24.2-11.9,2.8-3.7,5.5-7.3,7.5-11.6-1.4-.6-2.8-1-4.3-1.2Z"/> <path class="st11" d="M247.1,161.7c2.8.7,5.5,1.4,8.2,2.3.2.2.5.5.6.7,0,.1,0,.2,0,.3.6,1.9,3.3,5.5,4.4,7.6,5,9.8,6.7,21.1,1.6,31.3-2.4,4.8-6.2,9.5-10.1,13.1-.7.6-2.9,2.3-2.9,3.1,0,.1,0,.3,0,.4-3.3,0-6.7,0-10-.3.4-1.3,1.8-2.2,2.8-3.1,2.1-1.8,4.4-3.4,6.2-5.5,4.6-5.1,6.4-13,7-19.6.5-5.2.3-12.4-2.5-16.9-1.4-2.3-3.4-4.1-5.5-5.8-2.3-2-4.9-3.9-6.9-6.2,0,0-.1-.2-.2-.2,0,0,.2,0,.3,0,2.2-.8,4.6-.7,6.8-1.2Z"/> <path class="st47" d="M109.7,183.2c10.3,4.8,18.8,11.6,25.7,20.6,2.1,2.7,3.8,5.8,6,8.4l.3-1.5c.8,1.5,4.8,11.6,5.2,11.8,15.6-.3,31.3.5,47,.9,30.7.9,61.3,1.9,91.9,3.1,24.4.9,48.8,1.9,73.2,3.2,8.2.4,16.3.9,24.5,1.4,4.9.3,9.9.4,14.7,1.1,2.6.3,3.7.7,5.5,2.8-.7,2-1,4.4-2.6,5.9-.7.7-1.5.8-2.4.9-5,.4-10.5-.7-15.5-1.1-8.3-.6-16.6-.9-24.9-1.3-14.5-.5-29-1.2-43.6-2-7.1-.4-14.3-1-21.4-1.5-23.2-1.3-46.3-2.3-69.5-3.2-2.1.3-4.4.5-6.4.1l1.7.8c-1.4,0-2.8-.1-4.2.1-4.7,0-10.4-.4-15-1.3-16.3-.7-32.6-.8-48.9-1.5-.7.2-1,.5-1.3,1.1-.8,1.4-.7,3.1-.4,4.7.5,3.7,1.7,7.3,2.7,10.9,2,7.1,4.3,14,6.6,21,3.1,9.3,5.8,18.7,8.9,28,1.3,4,2.9,8,4.2,12,1.6,4.7,3,9.5,4.6,14.2,5.1,14.4,10,28.1,13.6,43-5,5.6-10.2,10.9-15.3,16.4-1.9,2.1-4.1,4.1-5.6,6.5-1.5,2.4-1.4,5.6-3,8.2-.7,1.2-3.3,3.4-3.4,4.6.4.4.7.4,1.2.5-.6.8-1.1,1.6-1.7,2.5,0,0,.2,0,.3.1,7.1,3.2,8.6,6.3,17.1,6.9,10.2-.4,20.5-.3,30.7-.5l86.9-1.4,29.8-.3c6.8,0,13.7.2,20.4-.5,4.9-.5,9.9-1.7,14-4.5.3-.5,1.1-1.1,1.5-1.5.5,1.1.2,2.8-.2,3.9-.9,2.6-2.8,4.8-5.3,5.9-4.4,1.9-10,1.8-14.7,2-8.9.4-17.9.2-26.8.2-16.6,0-33.1,0-49.7.2l-55.7.9c-9,.1-18.1.6-27.1.3-6.5-.2-13.4,0-19.5-2.5-5.1-2.1-6-3.3-8.8-7.8,1.1-1,2.2-9.2,4.2-12.1,3.5-5,22-23.1,22.5-26.9.2-1.7-.8-4.5-1.3-6.1-2.7-9.2-5.9-18.2-8.8-27.4l-20.6-64.9-11.1-34.1c-1.8-5.5-3.4-11.2-5.6-16.5-2.1-5.1-5.3-9.2-9-13.2-1-1.3-2.7-2.3-3.5-3.8v-.8c-2.4-4.5-7.9-8.6-12.1-11.2-.1-1.9-.3-3.8-.2-5.7Z"/> <path class="st28" d="M200,232.5c7.9-.3,16.1-.9,23.9.2-2.1.3-4.4.5-6.4.1l1.7.8c-1.4,0-2.8-.1-4.2.1-4.7,0-10.4-.4-15-1.3Z"/> <path class="st10" d="M361.5,404.5l.5.6c-.3,1.3-1.7,2.1-2.7,2.8-3.8,2.5-9.5,2.9-13.9,3.1-4.4.3-8.9.2-13.3.3h-26.7c0,.1-66.3,1.2-66.3,1.2l-39,.9c-6.4.1-14.8,1-20.9-.5-1.1-.3-2.3-.7-3.4-1.1l3.7-.3c10.2-.4,20.5-.3,30.7-.5l86.9-1.4,29.8-.3c6.8,0,13.7.2,20.4-.5,4.9-.5,9.9-1.7,14-4.5Z"/> <path class="st10" d="M146.9,222.5c15.6-.3,31.3.5,47,.9,30.7.9,61.3,1.9,91.9,3.1,24.4.9,48.8,1.9,73.2,3.2,8.2.4,16.3.9,24.5,1.4,4.9.3,9.9.4,14.7,1.1-.6,1-1.1,2.6-1.9,3.4-1.5,1.5-4.4.8-6.3.7-55.6-4-111.2-6.8-166.9-8.5l-53.3-1c-7.5-.1-15,0-22.5-.2,0-1.4,0-2.7-.4-4.1Z"/> <path class="st19" d="M378.4,141.7c.3-.7.7-1.4,1-2.1,2-3.5,5.3-6.1,9.2-7.2,6.5-1.8,11.4,1,16.9,4,.4.4.8.8,1.1,1.3-2.9,2.9,2,9.8-5.2,14.6-.2.3-.2.4-.5.6-1,.4-2.4.9-2.8,1.9-.1.2-.1.3-.2.5.6,0,1.1-.2,1.7-.3l.3.2h.3c2.9-.2,5.9-.8,7.8-3.1.7-.9,1.4-2.5,2.6-2.7,1.9,1.2,3.7,5.2,4.2,7.4.8,3.3.4,7.5-1.4,10.4-1.3,2.1-3.3,3.5-5.3,4.8,1.9,3.8,2.4,9.8,1,13.8-1,2.8-3,5-5.7,6.2-.4.2-.8.3-1.2.5,1.3,5.1,2.7,10.9-.2,15.8-2.9,4.7-7.3,5.5-11.9,7.5,0,3.5,0,8.1-1.3,11.3-3.9,0-7.9-.5-11.8-.8-3.9-.2-8.1-.1-12-.7-5.4-.2-10.8-.2-16.1-.9-5.7-.1-14.5,0-19.9-.8-7.3-.1-14.9-.4-22.2-1-.1-4.6-.2-9,1.6-13.3,1.8-4.3,5.3-7.6,9.7-9.3,1.4-.5,2.9-.8,4.3-1.3l.2-.6c-.8-5.5.4-11.7,3.8-16.2,3.4-4.5,7.8-5.9,13.2-6.6.6-5.2,2.1-10.7,5.7-14.6,3.5-3.8,8.3-5.3,13.3-5.5,0-2.3,0-4.3,1-6.5,1.5-3.5,4.9-6.6,8.4-7.9,3.4-1.3,6.9-.8,10.1.7Z"/> <path class="st22" d="M366.3,175.2l1.6,1.2c1.2,3,2.3,6.3,3.7,9.2.6,0,1.4,0,2,.3.5.6,1,1,1.8,1.1.6,0,1.1,0,1.7,0l-.6.7c-1.3-.3-1.9,0-3.1.2-.5,0-1.1,0-1.5-.4-2-1.6-2.6-9.3-5.3-11.5-.3-.3-.3-.4-.4-.8Z"/> <path class="st46" d="M383,189.2c.9-.4,1.8-.7,2.7-.9.5.3.6.4.7,1,.2,1.1-.5,2.8-1.2,3.6-.6.7-1.4,1.2-2.4,1.3-1,0-2-.4-2.9-.9-.3-.5-.4-.7-.3-1.3,1.2-.9,2.3-1.9,3.4-2.9Z"/> <path class="st46" d="M366,210.8c.8.8.8,2.7.8,3.9,0,1.6-.3,2.9-.8,4.5-1.4.3-3.5,1-4.8.2-.9-.6-1.1-2-1.3-2.9,1.9-1.9,3.8-4.1,6.1-5.5Z"/> <path class="st41" d="M315.9,206.4c.3,0,.5.1.8.3.9.4,1.3.9,1.6,1.8.6,1.8.3,3.9-.7,5.6-.7,1.3-1.4,1.6-2.8,1.9-.9-.2-1.4-.4-2-1.2-.6-.9-.7-2.4-.4-3.4.5-2.4,1.4-3.7,3.5-5Z"/> <path class="st43" d="M342.6,218.7c2,1.6,5.6,3.7,6.5,6.2-5.7-.1-14.5,0-19.9-.8,1.1,0,2.3.1,3.4,0,3.5-.5,7.4-3,10-5.3Z"/> <path class="st46" d="M351.6,189.3c.5-1.2,1.1-2.3,2.1-3.3,1.8-1.8,3.9-2,6.3-2,.9.1,1.2,0,1.8.8.6.8,1.3,1.9,1.5,2.9,1,3.7,2.6,8.7.5,12.2-1,1.7-2.7,2.8-4.6,3.2-2.1.4-4.4,0-6.2-1.1-1.8-1.2-3-3.2-3.4-5.3-.6-3.4.9-4.7,2-7.5Z"/> <path class="st41" d="M351.6,189.3c.5-1.2,1.1-2.3,2.1-3.3,1.8-1.8,3.9-2,6.3-2,.9.1,1.2,0,1.8.8.6.8,1.3,1.9,1.5,2.9,0,0-.1,0-.2,0-.4-.2-.5-.4-.8-.7h-.4c-.3,1.1-.3,2.1-.3,3.1-.2-.3-.2-.1-.3-.5,0,0,0,0,0,0-.4,1.3-.8,2.3-1.8,3.2-1,1-2.3,1.9-3.8,1.9-1.7,0-2.4-.8-3.5-2-.3-1.1-.5-2.3-.8-3.4Z"/> <path class="st46" d="M359.9,184.1c.9.1,1.2,0,1.8.8.6.8,1.3,1.9,1.5,2.9,0,0-.1,0-.2,0-.4-.2-.5-.4-.8-.7h-.4c-.3,1.1-.3,2.1-.3,3.1-.2-.3-.2-.1-.3-.5,0-2.2-.9-3.3-1.5-5.3v-.2Z"/> <path class="st35" d="M399.9,155.3h.3c2.9-.2,5.9-.8,7.8-3.1.7-.9,1.4-2.5,2.6-2.7,1.9,1.2,3.7,5.2,4.2,7.4.8,3.3.4,7.5-1.4,10.4-1.3,2.1-3.3,3.5-5.3,4.8,1.9,3.8,2.4,9.8,1,13.8-1,2.8-3,5-5.7,6.2-.4.2-.8.3-1.2.5,1.3,5.1,2.7,10.9-.2,15.8-2.9,4.7-7.3,5.5-11.9,7.5,0,3.5,0,8.1-1.3,11.3-3.9,0-7.9-.5-11.8-.8-3.9-.2-8.1-.1-12-.7,1.6-.2,3.4.3,4.9-.2,2.1-.7,3.5-2.5,4.3-4.4,1.8-3.9,1.3-7.8-.2-11.7h-.8c-2.8-.3-5.1-.5-7.4,1.4-2.3,1.5-4.2,3.7-6.1,5.5-1.7.5-2.6,1.4-4.5,1.2-2.4-.2-4.3-1.5-5.8-3.3-3.1-3.8-3.4-7.8-2.9-12.5,1.4,3.8,3,7.5,5.7,10.5.6.2,1.3.5,1.9.7,4.3,1.1,10.8-3.7,14.5-5.8,1-1.6,4.7-3.5,6.6-5.8,1,.9,2.4,1.8,3.7,2.2,1.5.4,2.9.3,4.3-.5,2.4-1.4,3.9-4.5,4.5-7.2.6-2.9.2-6.1-1.7-8.5,0,0,0,0-.1-.1h.5c0,.1-.3-.4-.3-.4l.4-.3v-.3c-1.4.4-2.4,1.9-3.5,2.8-1.1,1-2.2,2-3.4,2.9-2.2.5-3.8.9-6.1.2-5-1.6-4.7-5.9-6.9-9.7-.5-.8-1.3-1.8-2.3-2-.2,0-.3,0-.5,0,.4,0,.8,0,1.2,0,2.3.8,3.3,6.1,4.6,8.2,1.2,1.9,2.8,3.1,5,3.5,1.9.3,4.7,0,6-1.6.6-.7.8-1.2,1.6-1.7l.4-.2c.1-.3.3-.7.4-1,.7-1.6,2.4-1.5,3.9-2.1.4-.5.6-.8.5-1.5,0-.6-.2-1.1-.7-1.5v.2c-1.6.9-3.1,2.2-4.7,3-1.7.8-3.8.9-5.5,1.7l.6-.7c-.6,0-1.1,0-1.7,0-.8,0-1.3-.5-1.8-1.1,2-.2,3.9-.8,5.9-1.3,4.1-2.4,9.4-4.2,12.6-7.6.3-3.2.2-6-.2-9.3-1.1-.9-2.3-1.6-3.5-2.4-.1,0-.2,0-.3,0-.6-.2-.8-.1-1.1-.7,0-.7.1-1.3.1-2-1.1-1-2.2-2-3.3-3,0,0-.2-.2-.3-.3-.3-.3-.6-.5-.8-.8-.4-.5-.4-.6-.3-1.2h.5c3.8,1.2,7.8,1.8,11.8,1.4,1.6-1.6,3.1-2.4,5.2-3.3Z"/> <path class="st22" d="M387.1,162.5c2,.5,3.8,1.1,5.5,2.4-1.4.2-2.8.2-4.2.3-.1,0-.2,0-.3,0-.6-.2-.8-.1-1.1-.7,0-.7.1-1.3.1-2Z"/> <path class="st22" d="M386.4,186.4c.7-.2,1.1-.3,1.8-.1,1.2.8,2.8,5.3,3.1,6.8.7,3.4-.6,6.9-2.5,9.7-2,2.8-5.3,5-8.7,5.6-1,.2-10.1-.8-11.3-1.1,1-1.6,4.7-3.5,6.6-5.8,1,.9,2.4,1.8,3.7,2.2,1.5.4,2.9.3,4.3-.5,2.4-1.4,3.9-4.5,4.5-7.2.6-2.9.2-6.1-1.7-8.5,0,0,0,0-.1-.1h.5c0,.1-.3-.4-.3-.4l.4-.3v-.3Z"/> <path class="st19" d="M400.5,157.6c1.2-.8,2.3-1.6,3.7-1.4.6.4.7.6.9,1.4.6,3.9.5,10.3-2,13.4-.8,1.1-2.1,2.2-3.5,2.3-1.6.1-3.4,0-5-.1,1.9,2.1,3.6,4.5,4.9,7-1.4,1.5-2.4,2.5-4.5,2.7-2.5.2-5-.9-7.5-.5-.3,0-.6.1-1,.2-1.8,1.4-3.9,3.2-6.3,3.6-1,.4-2,.5-3,.8-.6,0-1.1,0-1.7,0-.8,0-1.3-.5-1.8-1.1,2-.2,3.9-.8,5.9-1.3,4.1-2.4,9.4-4.2,12.6-7.6.3-3.2.2-6-.2-9.3-1.1-.9-2.3-1.6-3.5-2.4,1.4-.1,2.8-.1,4.2-.3.8.3,1.4.2,2.1-.2,2.4-1.3,4.4-4.8,5.7-7.1Z"/> <path class="st46" d="M378.4,141.7c.3-.7.7-1.4,1-2.1,2-3.5,5.3-6.1,9.2-7.2,6.5-1.8,11.4,1,16.9,4,.4.4.8.8,1.1,1.3-2.9,2.9,2,9.8-5.2,14.6-.2.3-.2.4-.5.6-1,.4-2.4.9-2.8,1.9-.1.2-.1.3-.2.5.6,0,1.1-.2,1.7-.3l.3.2c-2.1.8-3.6,1.7-5.2,3.3-4,.4-8-.2-11.8-1.6h-.5c-.2.7,0,.8.3,1.4.2.3.6.6.8.8,0,0,.2.2.3.3,1.1,1,2.2,2.1,3.3,3,0,.7,0,1.3-.1,2,.3.6.5.5,1.1.7.1,0,.2,0,.3,0,1.2.8,2.4,1.5,3.5,2.4.4,3.2.5,6,.2,9.3-3.2,3.4-8.5,5.2-12.6,7.6-1.9.6-3.9,1.2-5.9,1.3-.6-.2-1.4-.2-2-.3-1.5-2.9-2.5-6.2-3.7-9.2l-1.6-1.2c-.6-.8-1.4-1.6-2.5-1.8-2-.4-3.3,1.8-4.9,2.4-1.6,3-4.1,5.4-7.5,6.3-2.7.8-5.7.5-8.5.4-2.3,4-3.9,9.2-2.8,13.9.4,1.7,1.9,3.1,2.6,4.7,1.2,2.7-.3,8.2-1.7,10.7-1.3,2.3-3.2,4.1-5.8,4.8-2.5.7-5.6.3-7.9-.9-1.8-1-2.7-2.7-3.2-4.7-.8-3.1-.2-10.5-1.3-12.5-.8-5.5.4-11.7,3.8-16.2,3.4-4.5,7.8-5.9,13.2-6.6.6-5.2,2.1-10.7,5.7-14.6,3.5-3.8,8.3-5.3,13.3-5.5,0-2.3,0-4.3,1-6.5,1.5-3.5,4.9-6.6,8.4-7.9,3.4-1.3,6.9-.8,10.1.7Z"/> <path class="st41" d="M396.3,138c.6,0,1.2,0,1.8.5,0,.7-.4,1-.8,1.6,0,0-.1,0-.2,0-.7-.2-1.1-.5-1.5-1.1.1-.6.2-.6.8-1Z"/> <path class="st41" d="M399.5,140.4c.5.2.4.2.7.6,0,.6-.2,1-.5,1.5-.6,1-1.1,1.6-2.2,1.9-.6-.3-.9-.4-1.1-1,.4-1.5,2-2.2,3.2-3Z"/> <path class="st41" d="M394.9,145.5c.4,0,.6.2.9.4v.5c-1.1,1.4-2.8,2.1-4.4,2.7,0,0-.2,0-.2-.1-.6-.4-.9-.8-1-1.4,1-1.4,3.1-1.6,4.7-2Z"/> <path class="st41" d="M328.9,199.4c.8.2,1.9.8,2.3,1.5.2.5.2,1.1,0,1.6-.4.7-1.2,1.1-1.9,1.4-1.3-.3-2-1.3-3-2.1.8-1,1.6-1.7,2.6-2.4Z"/> <path class="st41" d="M391.9,138.2c.9,0,2,.4,2.6,1.2.4.6.6,1.2.4,1.9-.2.8-1,1.2-1.6,1.7l-.3.2c-.7.1-.8.1-1.4-.1-.8-.8-1.1-1.6-1.1-2.7,0-1,.7-1.5,1.4-2.1Z"/> <path class="st41" d="M379.4,161.8c.9.2,1.7.3,2.3,1.1.6.8.7,1.8.5,2.7-.2.8-.6,1.4-1.3,1.9-.6,0-.9.1-1.4-.3-.9-.8-1.3-2.6-1.5-3.8.4-.6,1-1.1,1.5-1.5Z"/> <path class="st41" d="M350.6,160.3c1.1,0,2.5-.2,3.3.5.5.5.7.8.8,1.5-.2,1.3-1,2.1-2,2.8-.5.2-1.1.4-1.6.3-1.2,0-2-1.5-2.6-2.3v-.3c.7-1,1.3-1.8,2.1-2.6Z"/> <path class="st41" d="M385.5,139.7c.7,0,1.5,0,2,.5.5.4.7,1,.8,1.6.1,1.6-1,3.3-2,4.4-.5.2-1,.2-1.5.2-.4-.2-.8-.4-1.1-.8-.6-.8-.5-1.9-.3-2.8.3-1.4.9-2.3,2.1-3.1Z"/> <path class="st41" d="M374,144.7c.6,0,1.3.2,1.8.6.6.4,1,1,1.2,1.7.2,1,0,2-.5,2.9-.6.9-1.2,1.2-2.2,1.4-1.1-.4-2.6-1-3.2-2.1-.4-.6-.4-1.2-.2-1.9.4-1.4,2-2,3.2-2.6Z"/> <path class="st41" d="M373.7,164.9c.8.4,1.4,1,1.9,1.7.9,1.2,1.3,2.9,1.1,4.4-.2,1.2-.7,2.1-1.7,2.9-.7,0-1.6,0-2.2-.4-.8-.5-1.2-1.5-1.3-2.4-.3-2.3.9-4.5,2.3-6.2Z"/> <path class="st41" d="M331.9,190.9c1.3.5,3.9.5,4.9,1.4.4.4.7.7.6,1.3-.1,1.1-1.8,2.6-2.6,3.3-.6.2-1.2.4-1.8.4-1,0-2-.2-2.7-.9-.6-.6-.7-1.5-.6-2.3.2-1.5,1-2.2,2.1-3.1Z"/> <path class="st41" d="M335.1,181.5c.6,0,1.1,0,1.7,0,.7.4,1,1.1,1.3,1.9.4,1.5,0,3.2-.7,4.5-.6,1-1.4,1.3-2.4,1.6-1.2-.4-2.4-.8-3-1.9-.5-.8-.5-1.8-.2-2.7.6-1.8,1.9-2.6,3.5-3.3Z"/> <path class="st41" d="M348.2,167.2c1.5.3,3.5,1.3,4.6,2.4.8.8,1.4,1.8,1.4,2.9,0,1.5-1.1,2.4-2.1,3.4-.6.1-1.3.4-2,.3-1,0-1.9-.9-2.5-1.7-1-1.3-1.5-3.3-1.3-4.9.2-1.2.8-1.7,1.8-2.4Z"/> <path class="st18" d="M359,175.8c-.7-1.5-1.1-2.5-.5-4.1.8-2.1,2.7-3.6,4.7-4.5.9-.4,1.8-.5,2.7-.7,1.4.9,2.4,1.5,2.7,3.3.4,2-.4,4.7-.7,6.7l-1.6-1.2c-.6-.8-1.4-1.6-2.5-1.8-2-.4-3.3,1.8-4.9,2.4Z"/> <path class="st19" d="M382,156.9c.3-.9.6-1.8,1-2.7h.3c0,0,.2.1.2.1,1.5,1.2,3.2,1.8,5,2.2,7.8,1.6,7.6-3.6,12.9-4.1-.2.3-.2.4-.5.6-1,.4-2.4.9-2.8,1.9-.1.2-.1.3-.2.5.6,0,1.1-.2,1.7-.3l.3.2c-2.1.8-3.6,1.7-5.2,3.3-4,.4-8-.2-11.8-1.6h-.5c-.2.7,0,.8.3,1.4.2.3.6.6.8.8,0,0,.2.2.3.3-2.4,0-2.6,1.2-4.5,2.3-.5.5-1.1.9-1.5,1.5-3.3.7-6.9,1.8-10.1,0-2.9-1.6-3.5-4.8-4.4-7.7,1.9,2.3,3.6,4.5,6.7,5.2,4.5.9,8.3-1.6,11.9-4Z"/> </svg>